<?xml version="1.0" encoding="UTF-8"?>
<svg version="1.1" xmlns="http://www.w3.org/2000/svg" width="1024" height="1024" viewBox="0 0 1024 1024">
<path d="M0 0 C0.83805176 0.09651855 1.67610352 0.19303711 2.53955078 0.29248047 C59.95423136 7.2204655 115.06924376 33.21385034 157 73 C158.41042211 74.23632707 159.82671451 75.46600356 161.25 76.6875 C171.89076291 85.96295117 180.54321595 96.75951196 189 108 C189.71373779 108.94431885 189.71373779 108.94431885 190.44189453 109.90771484 C200.34311383 123.04238853 200.34311383 123.04238853 203.7734375 129.65625 C205.04078216 132.07792769 206.40347255 134.43401119 207.7824707 136.79345703 C220.18600585 158.09613911 229.42827688 180.23867664 236 204 C236.31710937 205.14033691 236.31710937 205.14033691 236.640625 206.30371094 C240.00308578 218.66870607 241.61482883 231.27954922 243 244 C243.14574463 245.3310376 243.14574463 245.3310376 243.29443359 246.68896484 C247.34588432 286.93434525 242.00121039 331.98851543 225 369 C225.66 369.33 226.32 369.66 227 370 C226.01 370 225.02 370 224 370 C223.67 371.155 223.34 372.31 223 373.5 C220.47606234 381.02485601 216.68752487 387.99525212 213 395 C212.61392578 395.73492676 212.22785156 396.46985352 211.83007812 397.22705078 C203.91099728 412.17772926 194.7944936 425.96306578 184 439 C182.53820915 440.80971265 181.0798498 442.62220267 179.625 444.4375 C178.65433594 445.64212891 178.65433594 445.64212891 177.6640625 446.87109375 C176.37012932 448.52647775 175.1654724 450.25179139 174 452 C173.34 452 172.68 452 172 452 C171.6141272 452.87265503 171.6141272 452.87265503 171.22045898 453.76293945 C169.8915227 456.19883526 168.42885569 457.82978378 166.47265625 459.79296875 C165.76850586 460.50122803 165.06435547 461.2094873 164.33886719 461.93920898 C163.58766602 462.68114502 162.83646484 463.42308105 162.0625 464.1875 C161.29196289 464.95199463 160.52142578 465.71648926 159.72753906 466.50415039 C154.07316134 472.06089602 148.30085304 477.18170061 142 482 C140.49953125 483.19109375 140.49953125 483.19109375 138.96875 484.40625 C122.01920245 497.808702 103.61648619 508.07396766 84.39453125 517.88671875 C83.5950708 518.29494873 82.79561035 518.70317871 81.97192383 519.1237793 C80 520 80 520 78 520 C77.67 520.66 77.34 521.32 77 522 C75.32470703 522.70654297 75.32470703 522.70654297 73.1328125 523.3671875 C69.56589472 524.48934802 66.05601133 525.69435096 62.5546875 527.0078125 C61.62269531 527.35457031 60.69070313 527.70132813 59.73046875 528.05859375 C57.81740132 528.77304985 55.90594927 529.49184553 53.99609375 530.21484375 C48.9617213 532.07916753 44.35377439 533.5105968 39 534 C38.67 534.99 38.34 535.98 38 537 C38 536.34 38 535.68 38 535 C37.18402344 535.24234375 36.36804688 535.4846875 35.52734375 535.734375 C-6.45894468 547.61297673 -51.44494211 548.26306217 -94 539 C-95.216875 538.76023437 -96.43375 538.52046875 -97.6875 538.2734375 C-152.00887945 527.04870941 -198.99337178 497.58567824 -237.54858398 458.46411133 C-238.88219075 457.11883971 -240.23326998 455.79094831 -241.5859375 454.46484375 C-244.14527548 451.85166856 -246.48900708 449.13691179 -248.8125 446.3125 C-249.60269531 445.35988281 -250.39289063 444.40726563 -251.20703125 443.42578125 C-253 441 -253 441 -253 439 C-253.66 439 -254.32 439 -255 439 C-256.24584961 437.63330078 -256.24584961 437.63330078 -257.65234375 435.6953125 C-258.17578369 434.97641846 -258.69922363 434.25752441 -259.23852539 433.5168457 C-260.07951782 432.33288208 -260.07951782 432.33288208 -260.9375 431.125 C-261.81039673 429.90139771 -261.81039673 429.90139771 -262.70092773 428.65307617 C-290.38079217 389.40629551 -309.99036121 343.37121648 -313 295 C-313.06558105 293.94828613 -313.13116211 292.89657227 -313.19873047 291.81298828 C-317.45000752 217.50229669 -294.93489708 149.84929963 -246.1796875 93.57421875 C-243.92352202 91.00915538 -243.92352202 91.00915538 -242 88 C-241.34 88 -240.68 88 -240 88 C-239.73445313 87.40832031 -239.46890625 86.81664062 -239.1953125 86.20703125 C-236.08276855 80.46001383 -230.17026041 76.19872982 -225.265625 71.99609375 C-223.61866068 70.54506139 -222.00843292 69.05200178 -220.421875 67.53515625 C-212.23263271 59.73747609 -203.38518665 53.28915635 -194 47 C-193.37270996 46.57944336 -192.74541992 46.15888672 -192.09912109 45.72558594 C-173.2473474 33.17812261 -153.2653565 22.81742576 -132 15 C-131.34306152 14.75685059 -130.68612305 14.51370117 -130.00927734 14.26318359 C-110.68893431 7.21554009 -90.40779761 2.49322267 -70 0 C-68.73953857 -0.1544458 -68.73953857 -0.1544458 -67.45361328 -0.31201172 C-44.93126838 -2.95164222 -22.50684556 -2.60872017 0 0 Z M-140 52 C-140.66805664 52.31018066 -141.33611328 52.62036133 -142.02441406 52.93994141 C-158.55113577 60.6336959 -173.91262141 70.44158191 -188 82 C-188.53866699 82.43715332 -189.07733398 82.87430664 -189.63232422 83.32470703 C-197.2582209 89.54226742 -204.39096089 96.1956376 -211.375 103.125 C-212.13135742 103.87209229 -212.88771484 104.61918457 -213.66699219 105.38891602 C-214.36211914 106.08815186 -215.05724609 106.7873877 -215.7734375 107.5078125 C-216.39653809 108.13316895 -217.01963867 108.75852539 -217.66162109 109.40283203 C-219.21409313 110.90819095 -219.21409313 110.90819095 -219 113 C-219.66 113 -220.32 113 -221 113 C-222.81401679 115.08777389 -224.51085482 117.18069132 -226.1875 119.375 C-226.68362793 120.01695312 -227.17975586 120.65890625 -227.69091797 121.3203125 C-231.6234472 126.43912698 -235.41692007 131.62942421 -239 137 C-239.68449219 138.0209375 -240.36898437 139.041875 -241.07421875 140.09375 C-274.95244424 191.28168982 -287.7275189 255.02935955 -275.48046875 315.4140625 C-274.99664421 317.6115253 -274.50355182 319.80697366 -274 322 C-273.65509521 323.52125488 -273.65509521 323.52125488 -273.30322266 325.07324219 C-268.78625191 344.38784746 -261.3540854 362.54518449 -252 380 C-251.68063477 380.60005859 -251.36126953 381.20011719 -251.03222656 381.81835938 C-246.05541697 391.08482515 -240.28112214 399.58018172 -234 408 C-233.41605469 408.78761719 -232.83210938 409.57523438 -232.23046875 410.38671875 C-220.18794329 426.23831553 -206.69342543 440.72748475 -191 453 C-189.8972118 453.89171547 -188.79570791 454.78502095 -187.6953125 455.6796875 C-180.37963981 461.58881665 -172.88208179 466.96132284 -164.85693359 471.86425781 C-163.59547405 472.63579473 -162.33810123 473.41404527 -161.08447266 474.19824219 C-135.55821716 490.14503841 -107.50525631 500.34656062 -78 506 C-76.80262207 506.24556641 -76.80262207 506.24556641 -75.58105469 506.49609375 C-49.22587712 511.75192644 -18.28779304 511.44191328 8 506 C8.99209473 505.80664062 9.98418945 505.61328125 11.00634766 505.4140625 C27.59365902 502.13455746 43.28419324 497.20106516 59 491 C59.75958008 490.70512695 60.51916016 490.41025391 61.30175781 490.10644531 C77.11255986 483.89638369 92.45339579 475.22863719 106 465 C107.24003137 464.09778334 108.48100632 463.19686287 109.72265625 462.296875 C117.48774216 456.62256689 124.7762076 450.71584589 131.7421875 444.08203125 C134 442 134 442 136 441 C136 440.34 136 439.68 136 439 C136.66 439 137.32 439 138 439 C139.53457367 437.48280017 139.53457367 437.48280017 141.125 435.5 C143.55197238 432.63357583 146.02861585 429.96199481 148.75 427.375 C154.44128566 421.74963657 159.18923752 415.37464317 164 409 C164.64654541 408.15260254 164.64654541 408.15260254 165.30615234 407.28808594 C172.55764346 397.73298289 178.40970241 387.59852516 184 377 C184.50490967 376.05592285 184.50490967 376.05592285 185.02001953 375.09277344 C189.51799914 366.65012797 193.02476319 358.03945392 196.23217773 349.0534668 C197.08981326 346.75980308 198.03843523 344.51251451 198.984375 342.25390625 C201.2241423 336.68283614 202.68601102 331.02366486 204.0625 325.1875 C204.42698242 323.73053711 204.42698242 323.73053711 204.79882812 322.24414062 C208.90003447 305.11045365 210.46947463 288.21491854 210.28125 270.62915039 C210.24953701 267.64391754 210.24020157 264.65921445 210.234375 261.67382812 C210.22522158 259.74478526 210.21485118 257.81574769 210.203125 255.88671875 C210.19675018 254.57099129 210.19675018 254.57099129 210.19024658 253.22868347 C210.62489392 244.54812459 210.62489392 244.54812459 208 237 C207.8873299 235.58536424 207.81241633 234.16774225 207.75 232.75 C207.26205006 226.84038404 206.04248096 221.19667694 204.6875 215.4375 C204.48672852 214.56383789 204.28595703 213.69017578 204.07910156 212.79003906 C202.77642288 207.39957487 201.0733856 202.36377767 198.90258789 197.26000977 C198.01142097 195.02859723 197.35461328 192.82353823 196.75 190.5 C193.05420617 177.74549413 186.57067702 165.4672962 180 154 C179.65855957 153.4009082 179.31711914 152.80181641 178.96533203 152.18457031 C171.14433248 136.65761935 171.14433248 136.65761935 159 126 C158.96648437 125.32066406 158.93296875 124.64132812 158.8984375 123.94140625 C157.57669758 119.61414467 154.7532419 117.11630616 151.625 113.9375 C150.44889036 112.71901959 149.27436232 111.49901023 148.1015625 110.27734375 C147.5540332 109.71128418 147.00650391 109.14522461 146.44238281 108.56201172 C145 107 145 107 143.2109375 104.56640625 C142.61152344 103.79103516 142.61152344 103.79103516 142 103 C141.34 103 140.68 103 140 103 C139.67 102.01 139.34 101.02 139 100 C138.34 100 137.68 100 137 100 C137 99.34 137 98.68 137 98 C135.55316948 96.49726114 135.55316948 96.49726114 133.625 94.9375 C130.43209456 92.23193276 127.32386906 89.46509584 124.25 86.625 C116.3499594 79.51133404 107.83227538 73.3107886 98.79296875 67.7265625 C96.94405313 66.58359648 95.1126083 65.4118301 93.30078125 64.2109375 C79.93860375 55.54068614 65.01845406 48.30339159 50 43 C49.02897339 42.64989868 49.02897339 42.64989868 48.03833008 42.29272461 C29.8414625 35.78111122 11.16821028 31.44628517 -8 29 C-8.74652832 28.90428711 -9.49305664 28.80857422 -10.26220703 28.70996094 C-54.57468378 23.64204497 -99.97443901 32.99111189 -140 52 Z " fill="#04C58F" transform="translate(547,214)"/>
<path d="M0 0 C3.06941734 2.50379989 5.79416499 5.05390749 6.56079102 9.05200195 C6.87458887 17.42021231 4.17201503 24.26671393 1.02893066 31.84411621 C-0.27757794 34.99566698 -1.54055418 38.16417472 -2.80728149 41.33187866 C-3.47669443 43.00462244 -4.14825273 44.67650914 -4.8218689 46.3475647 C-8.39876768 55.23274087 -11.75616978 64.19611105 -15.09765625 73.171875 C-15.71876795 74.8354523 -16.34010854 76.49894417 -16.96166992 78.16235352 C-17.92155246 80.73141686 -18.88121446 83.30056086 -19.83998108 85.87004089 C-22.28403576 92.41936707 -24.73948258 98.96436127 -27.19921875 105.5078125 C-34.45190636 124.80617719 -41.67612551 144.11428745 -48.81460571 163.45523071 C-49.89534156 166.38175826 -50.97803086 169.30755595 -52.0612793 172.2331543 C-54.97461311 180.10589667 -57.8795362 187.97988465 -60.69921875 195.88671875 C-61.10519287 197.01078125 -61.51116699 198.13484375 -61.92944336 199.29296875 C-62.62785836 201.22984056 -63.31509383 203.17081327 -63.98657227 205.1171875 C-66.33485272 211.58050761 -69.46182053 217.15535202 -75.72265625 220.421875 C-81.16792497 221.293118 -85.18454803 220.78541196 -90.09765625 218.234375 C-93.58349381 215.30310251 -96.49272588 212.65971704 -97.10522461 207.93505859 C-97.1576294 202.16535605 -96.08426067 197.59907576 -94.03515625 192.234375 C-93.73544922 191.41146973 -93.43574219 190.58856445 -93.12695312 189.74072266 C-92.04993509 186.79491837 -90.94988472 183.8583395 -89.84765625 180.921875 C-88.09413632 176.23261584 -86.34906802 171.54028343 -84.61026001 166.84555054 C-83.85304184 164.81134298 -83.08559616 162.78120473 -82.31713867 160.7512207 C-81.84781524 159.49312409 -81.37880641 158.23491006 -80.91015625 156.9765625 C-80.48863281 155.85749512 -80.06710937 154.73842773 -79.6328125 153.58544922 C-78.53530578 150.97835809 -78.53530578 150.97835809 -79.84765625 148.921875 C-78.85765625 148.921875 -77.86765625 148.921875 -76.84765625 148.921875 C-76.74146973 148.0954248 -76.6352832 147.26897461 -76.52587891 146.41748047 C-75.75170876 142.42735517 -74.4475043 138.77193401 -72.99609375 134.9921875 C-72.70535477 134.22156982 -72.41461578 133.45095215 -72.11506653 132.65698242 C-71.15601174 130.11832376 -70.18932689 127.58264236 -69.22265625 125.046875 C-68.54671311 123.26177126 -67.8713481 121.47644852 -67.1965332 119.69091797 C-65.78991442 115.97020845 -64.38078895 112.25046164 -62.97021484 108.53125 C-60.92192919 103.12498289 -58.89137893 97.7122032 -56.8671875 92.296875 C-56.54730362 91.44114899 -56.22741974 90.58542297 -55.89784241 89.70376587 C-55.25971782 87.99662538 -54.62160028 86.28948226 -53.98348999 84.58233643 C-48.02828047 68.66051125 -42.01754123 52.76197467 -35.84765625 36.921875 C-35.49123047 36.00019531 -35.13480469 35.07851563 -34.76757812 34.12890625 C-31.4764072 25.63126052 -28.13537927 17.15619459 -24.22265625 8.921875 C-23.46082031 7.313125 -23.46082031 7.313125 -22.68359375 5.671875 C-20.12685877 1.84221239 -17.0705079 -0.27657627 -12.74609375 -1.8359375 C-8.39101004 -2.39152431 -3.85473978 -2.24927733 0 0 Z " fill="#171717" transform="translate(554.84765625,377.078125)"/>
<path d="M0 0 C0 0.66 0 1.32 0 2 C0.5775 2.226875 1.155 2.45375 1.75 2.6875 C5.56083774 4.91048868 7.61929664 7.85788992 9 12 C9.69882354 18.87176482 8.29957936 22.63360772 4 28 C1.76788887 30.45074616 -0.58922453 32.72712906 -3 35 C-4.66923226 36.66416602 -6.33538166 38.33123002 -8 40 C-9.11118583 41.1114704 -10.22252355 42.22278897 -11.33398438 43.33398438 C-11.93811157 43.93811157 -12.54223877 44.54223877 -13.16467285 45.16467285 C-35.66601563 67.66601563 -35.66601563 67.66601563 -37.39093018 69.38952637 C-38.42565795 70.42515687 -39.45864282 71.46253328 -40.48944092 72.5020752 C-42.6490732 74.67750273 -44.78159683 76.68117661 -47.25 78.5 C-50.0755557 80.75078488 -50.0755557 80.75078488 -51.1875 83.5 C-50.91453318 87.13955765 -48.52097878 88.60068636 -46 91 C-44.76091234 92.24400804 -43.52549393 93.49167724 -42.29296875 94.7421875 C-40.9245318 96.11984395 -39.55604103 97.49744694 -38.1875 98.875 C-37.51396484 99.55691406 -36.84042969 100.23882812 -36.14648438 100.94140625 C-32.20703539 104.89970427 -28.16043528 108.64442415 -23.9309082 112.28955078 C-20.81159677 115.05271881 -17.91365296 118.02324883 -15 121 C-11.28960157 124.75825225 -7.59787781 128.46105464 -3.5625 131.875 C1.73704389 136.37676309 8.09572147 141.93604021 9.37109375 149.078125 C9.55945156 155.23853321 8.10762622 159.35849133 4 164 C-0.13349277 167.07608764 -4.2405427 167.67910821 -9.29492188 167.44995117 C-17.52230112 166.08144396 -23.84424291 158.47153709 -29.3125 152.6875 C-30.67639379 151.24705464 -32.04722217 149.81313523 -33.42578125 148.38671875 C-34.01786377 147.75983154 -34.60994629 147.13294434 -35.2199707 146.48706055 C-37.15897449 144.86719056 -38.53085877 144.40072225 -41 144 C-41 143.01 -41 142.02 -41 141 C-42.39215694 139.46691252 -42.39215694 139.46691252 -44.3125 138 C-47.94422722 134.96818509 -51.3130395 131.74858625 -54.625 128.375 C-57.54878028 125.41055519 -60.43006278 122.53266866 -63.6875 119.9375 C-64.450625 119.298125 -65.21375 118.65875 -66 118 C-66 117.34 -66 116.68 -66 116 C-66.81597656 115.67708984 -66.81597656 115.67708984 -67.6484375 115.34765625 C-70.80929113 113.53620359 -73.12763796 111.04503977 -75.625 108.4375 C-78.96402902 104.77285984 -78.96402902 104.77285984 -83 102 C-83 101.34 -83 100.68 -83 100 C-83.90685547 99.62101562 -83.90685547 99.62101562 -84.83203125 99.234375 C-89.28526817 96.6988383 -91.42749939 91.71750182 -93 87 C-93 77.68889018 -87.14375156 72.28612014 -81 66 C-79.7934375 64.7315625 -79.7934375 64.7315625 -78.5625 63.4375 C-77.09165867 62.03840703 -75.60643999 60.65340455 -74.08300781 59.31176758 C-66.11597483 52.29067288 -58.6684154 44.78074429 -51.1875 37.25 C-49.87849213 35.93596186 -48.56924874 34.62215829 -47.25976562 33.30859375 C-44.86207086 30.90280914 -42.46572465 28.49569969 -40.07104492 26.08691406 C-39.04736383 25.05794217 -38.02368222 24.02897078 -37 23 C-35.63717896 21.62932373 -35.63717896 21.62932373 -34.24682617 20.23095703 C-31.94113744 17.94155318 -29.55799746 15.77816389 -27.125 13.625 C-24.02924413 10.87372735 -21.08495767 8.08015495 -18.25 5.0625 C-12.87482016 -0.33768067 -7.23900426 -0.28956017 0 0 Z " fill="#171717" transform="translate(435,403)"/>
<path d="M0 0 C3.6130138 2.35951922 6.37288712 5.13075846 9.328125 8.2578125 C10.9589675 10.08088326 10.9589675 10.08088326 13.0625 11 C13.0625 11.66 13.0625 12.32 13.0625 13 C13.59697754 13.20778076 14.13145508 13.41556152 14.68212891 13.62963867 C18.01087225 15.54597061 20.48714327 18.1994926 23.1484375 20.92578125 C23.72784088 21.5103862 24.30724426 22.09499115 24.90420532 22.6973114 C26.7534628 24.56434332 28.59590291 26.43791405 30.4375 28.3125 C32.27277394 30.17552992 34.1095329 32.03703086 35.94937134 33.89555359 C37.09201391 35.05030097 38.23197521 36.20771008 39.3687439 37.36824036 C41.96442342 39.99607519 44.57528532 42.45952536 47.45947266 44.77026367 C48.31847168 45.50607666 49.1774707 46.24188965 50.0625 47 C50.0625 47.66 50.0625 48.32 50.0625 49 C50.63685791 49.24838623 51.21121582 49.49677246 51.80297852 49.75268555 C54.40192136 51.18736939 56.13209671 52.84318058 58.21484375 54.95703125 C58.99150391 55.74013672 59.76816406 56.52324219 60.56835938 57.33007812 C61.77202148 58.55887695 61.77202148 58.55887695 63 59.8125 C63.79857422 60.62009766 64.59714844 61.42769531 65.41992188 62.25976562 C66.96080751 63.818524 68.49916818 65.37978352 70.03466797 66.94384766 C71.67607151 68.60817472 73.3334494 70.2517905 75.00390625 71.88671875 C78.79277337 75.77623889 79.8019092 78.61445683 80.0625 84 C78.78079766 92.4669091 73.47722798 97.3680086 67.5 103.0625 C66.62408203 103.92810547 65.74816406 104.79371094 64.84570312 105.68554688 C58.37176894 112 58.37176894 112 56.0625 112 C55.5675 113.485 55.5675 113.485 55.0625 115 C53.59057617 116.45068359 53.59057617 116.45068359 51.66796875 118.0234375 C46.27555238 122.5994769 41.35019106 127.60410047 36.375 132.625 C34.98958008 134.0171875 34.98958008 134.0171875 33.57617188 135.4375 C31.85991212 137.16240902 30.14469003 138.88835167 28.4309082 140.61572266 C3.1747768 166.04107873 3.1747768 166.04107873 -5.125 166.3125 C-10.21636245 166.23883077 -12.85389738 165.0426843 -16.9375 162 C-20.64691885 157.70488344 -22.2102153 153.62884385 -21.9375 148 C-20.2954949 142.61787219 -17.91083715 139.84990873 -13.9375 136 C-12.99134628 135.04834575 -12.04781733 134.09407597 -11.10668945 133.13745117 C-8.40544632 130.40088687 -5.69834284 127.6702083 -2.98901367 124.94165039 C-1.82253189 123.76501532 -0.65783729 122.586606 0.50512695 121.40649414 C2.19018058 119.69731087 3.88149907 117.99455571 5.57421875 116.29296875 C6.35547371 115.49622993 6.35547371 115.49622993 7.1525116 114.68339539 C8.41844144 113.41707062 9.73623347 112.20298539 11.0625 111 C11.7225 111 12.3825 111 13.0625 111 C13.0625 110.34 13.0625 109.68 13.0625 109 C13.7225 109 14.3825 109 15.0625 109 C15.5575 107.515 15.5575 107.515 16.0625 106 C17.3828125 104.703125 17.3828125 104.703125 19.1875 103.25 C26.23753842 97.29749503 32.58475972 90.55997721 39.0625 84 C37.58255112 80.56904454 35.65090187 78.34037395 33.01513672 75.7097168 C32.18021698 74.87172043 31.34529724 74.03372406 30.4850769 73.17033386 C29.5799234 72.27236588 28.6747699 71.37439789 27.7421875 70.44921875 C26.80956085 69.51705032 25.8769342 68.5848819 24.91604614 67.62446594 C22.94027265 65.65025544 20.96119156 63.67944339 18.97949219 61.71118164 C16.45969525 59.20826895 13.94642438 56.69893088 11.43543816 54.18718243 C9.48813948 52.24015812 7.538226 50.29576991 5.58746719 48.35221291 C4.21520743 46.98461794 2.84438548 45.61558072 1.47360229 44.24650574 C-2.9607409 39.84529603 -7.44020516 35.57467036 -12.21359253 31.5415802 C-17.38837418 26.91410391 -21.6780542 22.21712793 -22.25 15.125 C-22.10259371 10.45135355 -20.86541576 6.94898588 -17.5078125 3.5546875 C-12.08701805 -1.16490965 -6.90164095 -2.34949479 0 0 Z " fill="#171717" transform="translate(601.9375,404)"/>
<path d="M0 0 C2.51271199 1.11676088 4.3192554 2.27013919 6.4375 4.0625 C9.18785053 6.14203333 10.6948134 6.35508554 14 7 C19.62675101 10.19952508 19.62675101 10.19952508 20.91333008 12.95874023 C22.2883352 15.5416245 23.69338616 16.36126171 26.19921875 17.84765625 C27.06683838 18.36497314 27.93445801 18.88229004 28.82836914 19.4152832 C29.77188232 19.95886475 30.71539551 20.50244629 31.6875 21.0625 C32.66775146 21.63250732 33.64800293 22.20251465 34.65795898 22.78979492 C69.01403536 42.46205856 104.94998528 53.63278832 144 59 C145.25087402 59.18030762 146.50174805 59.36061523 147.79052734 59.54638672 C152.53626197 60.12895194 157.25849195 60.17955584 162.03515625 60.203125 C163.45666489 60.21371445 163.45666489 60.21371445 164.90689087 60.22451782 C193.10147112 60.54787641 193.10147112 60.54787641 221 57 C222.57539551 56.69400879 222.57539551 56.69400879 224.18261719 56.38183594 C262.78456972 48.77221144 300.53935708 34.56296134 333 12 C333.78890625 11.45214844 334.5778125 10.90429688 335.390625 10.33984375 C336.94014197 9.24481109 338.47340695 8.12677106 340 7 C340.66 7.33 341.32 7.66 342 8 C330.28532879 17.90636626 304.74561003 38 289 38 C288.67 38.66 288.34 39.32 288 40 C286.32470703 40.70654297 286.32470703 40.70654297 284.1328125 41.3671875 C280.56589472 42.48934802 277.05601133 43.69435096 273.5546875 45.0078125 C272.62269531 45.35457031 271.69070313 45.70132813 270.73046875 46.05859375 C268.81740132 46.77304985 266.90594927 47.49184553 264.99609375 48.21484375 C259.9617213 50.07916753 255.35377439 51.5105968 250 52 C249.67 52.99 249.34 53.98 249 55 C249 54.34 249 53.68 249 53 C248.18402344 53.24234375 247.36804688 53.4846875 246.52734375 53.734375 C204.54105532 65.61297673 159.55505789 66.26306217 117 57 C115.783125 56.76023437 114.56625 56.52046875 113.3125 56.2734375 C72.31717603 47.80234621 31.64662138 28.52297072 0 1 C0 0.67 0 0.34 0 0 Z " fill="#0A4F39" transform="translate(336,696)"/>
<path d="M0 0 C1.53720703 0.06574219 1.53720703 0.06574219 3.10546875 0.1328125 C9.47194078 0.42403613 15.79141995 0.91736685 22.125 1.625 C22.125 1.955 22.125 2.285 22.125 2.625 C20.94172119 2.64481934 19.75844238 2.66463867 18.53930664 2.68505859 C14.06418872 2.7622934 9.58934742 2.85080667 5.11450195 2.94238281 C3.19365987 2.98019403 1.2727584 3.015121 -0.64819336 3.046875 C-16.09081503 3.30512632 -31.26879326 4.21128159 -46.4375 7.3125 C-47.64092041 7.55371582 -47.64092041 7.55371582 -48.86865234 7.79980469 C-58.99569 9.93201555 -68.88051687 12.99606203 -78.76220703 16.04589844 C-80.875 16.625 -80.875 16.625 -82.875 16.625 C-82.875 17.285 -82.875 17.945 -82.875 18.625 C-83.70354492 18.97111328 -83.70354492 18.97111328 -84.54882812 19.32421875 C-99.40192187 25.55095068 -114.07405152 31.87322286 -127.78125 40.39453125 C-129.875 41.625 -129.875 41.625 -133.4375 43.125 C-137.96303377 45.09977837 -141.84199556 47.79915335 -145.875 50.625 C-146.535 50.295 -147.195 49.965 -147.875 49.625 C-143.125 45.625 -143.125 45.625 -140.875 45.625 C-140.875 44.965 -140.875 44.305 -140.875 43.625 C-140.215 43.625 -139.555 43.625 -138.875 43.625 C-138.875 42.965 -138.875 42.305 -138.875 41.625 C-136.565 40.965 -134.255 40.305 -131.875 39.625 C-131.875 38.965 -131.875 38.305 -131.875 37.625 C-130.885 37.625 -129.895 37.625 -128.875 37.625 C-128.875 36.305 -128.875 34.985 -128.875 33.625 C-128.029375 33.5425 -127.18375 33.46 -126.3125 33.375 C-123.30140747 32.71803436 -121.74227313 32.10079956 -119.1875 30.5625 C-115.875 28.625 -115.875 28.625 -112.875 28.625 C-112.38 27.14 -112.38 27.14 -111.875 25.625 C-110.26829555 25.14640719 -108.65627357 24.68156248 -107.02734375 24.28515625 C-104.50803451 23.51244616 -102.33475355 22.40769101 -100 21.1875 C-94.6185187 18.41049133 -89.0208252 15.625 -82.875 15.625 C-82.875 14.965 -82.875 14.305 -82.875 13.625 C-81.823125 13.50125 -80.77125 13.3775 -79.6875 13.25 C-76.33860201 12.70100033 -73.97837915 11.88112966 -70.875 10.625 C-68.54604988 10.06410102 -66.21069213 9.56721638 -63.86328125 9.08984375 C-61.81649564 8.69235276 -61.81649564 8.69235276 -59.875 7.625 C-58.885 8.12 -58.885 8.12 -57.875 8.625 C-57.545 7.965 -57.215 7.305 -56.875 6.625 C-54.565 6.625 -52.255 6.625 -49.875 6.625 C-49.875 5.965 -49.875 5.305 -49.875 4.625 C-48.14611445 4.45544205 -46.41687557 4.28948486 -44.6875 4.125 C-43.72457031 4.0321875 -42.76164062 3.939375 -41.76953125 3.84375 C-39.12312333 3.64375156 -36.52739135 3.58620817 -33.875 3.625 C-33.875 2.965 -33.875 2.305 -33.875 1.625 C-32.9571875 1.56441406 -32.039375 1.50382813 -31.09375 1.44140625 C-29.8665625 1.35761719 -28.639375 1.27382812 -27.375 1.1875 C-26.1684375 1.10628906 -24.961875 1.02507812 -23.71875 0.94140625 C-21.18707552 0.73300622 -18.66060927 0.44296868 -16.1484375 0.06640625 C-10.76062888 -0.63155393 -5.41034784 -0.27017967 0 0 Z " fill="#13CA98" transform="translate(512.875,238.375)"/>
<path d="M0 0 C5.36992646 1.76591668 10.71167721 3.59598395 16.03466797 5.49853516 C20.34543834 7.03108275 24.67193127 8.51715716 29 10 C29.69061523 10.24041016 30.38123047 10.48082031 31.09277344 10.72851562 C40.92481209 14.10035286 50.9541856 16.02791635 61.1875 17.75 C62.43450684 17.96092285 63.68151367 18.1718457 64.96630859 18.38916016 C76.56072955 20.25350512 88.13208826 21.19345041 99.875 21.125 C100.71796631 21.12306641 101.56093262 21.12113281 102.42944336 21.11914062 C109.11391409 21.07377519 115.74475362 20.70310659 122.41015625 20.22265625 C127.27840354 19.92070838 132.12494003 19.90704335 137 20 C137 20.33 137 20.66 137 21 C135.69675781 21.19916016 135.69675781 21.19916016 134.3671875 21.40234375 C133.21476563 21.57894531 132.06234375 21.75554688 130.875 21.9375 C129.73804688 22.11152344 128.60109375 22.28554688 127.4296875 22.46484375 C126.29789063 22.64144531 125.16609375 22.81804688 124 23 C122.90945313 23.16628906 121.81890625 23.33257813 120.6953125 23.50390625 C118.0420213 23.86318986 118.0420213 23.86318986 116 25 C116 24.34 116 23.68 116 23 C114.84213989 23.04543945 114.84213989 23.04543945 113.66088867 23.09179688 C110.16978235 23.22846595 106.67864192 23.36424356 103.1875 23.5 C101.97255859 23.54769531 100.75761719 23.59539063 99.50585938 23.64453125 C98.34248047 23.68964844 97.17910156 23.73476563 95.98046875 23.78125 C94.90692139 23.82314453 93.83337402 23.86503906 92.72729492 23.90820312 C83.36435722 24.22334632 74.18398759 22.68439947 65 21 C64.27490234 20.86722656 63.54980469 20.73445312 62.80273438 20.59765625 C41.16753343 16.58653614 19.6403011 11.17643719 0 1 C0 0.67 0 0.34 0 0 Z " fill="#21F6BB" transform="translate(410,703)"/>
<path d="M0 0 C0.33 0 0.66 0 1 0 C0.5636564 6.14325864 -0.13904988 11.98312074 -1.60546875 17.96484375 C-2.11817318 20.19711695 -2.11817318 20.19711695 -1.875 23.3125 C-2.03464186 28.02193495 -3.50006435 31.8352435 -5.125 36.23046875 C-6.20084006 39.15161684 -6.20084006 39.15161684 -6 43 C-6.66 43 -7.32 43 -8 43 C-8 43.66 -8 44.32 -8 45 C-8.99 45.495 -8.99 45.495 -10 46 C-11.11397515 48.50794946 -12.13641624 51.00543388 -13.125 53.5625 C-18.05887214 65.91748166 -23.86435356 77.75595107 -31 89 C-31.33 88.34 -31.66 87.68 -32 87 C-30.6082475 84.33605084 -29.15425501 81.77128155 -27.625 79.1875 C-13.43755507 54.37889421 -5.70753486 27.84681224 0 0 Z " fill="#0F8360" transform="translate(755,517)"/>
<path d="M0 0 C0.66 0.33 1.32 0.66 2 1 C0.44347006 3.2335449 -1.11990621 5.46173918 -2.6875 7.6875 C-3.12255859 8.31333984 -3.55761719 8.93917969 -4.00585938 9.58398438 C-6.72732287 13.43435125 -9.65843943 16.65843943 -13 20 C-13.69802734 21.18335938 -13.69802734 21.18335938 -14.41015625 22.390625 C-16.61325235 26.00651738 -19.44650583 28.77571529 -22.4375 31.75 C-23.01048828 32.33910156 -23.58347656 32.92820312 -24.17382812 33.53515625 C-24.73392578 34.09589844 -25.29402344 34.65664063 -25.87109375 35.234375 C-26.62797485 35.99572754 -26.62797485 35.99572754 -27.40014648 36.77246094 C-29.23662651 38.1815593 -30.74079246 38.5904021 -33 39 C-31.35455724 33.76450031 -28.22137307 31.06991582 -24.28125 27.3984375 C-18.78691419 22.10676162 -14.1580354 16.30027079 -9.515625 10.26953125 C-9.08830078 9.71475098 -8.66097656 9.1599707 -8.22070312 8.58837891 C-7.09777859 7.12722951 -5.9784059 5.66335225 -4.859375 4.19921875 C-3 2 -3 2 0 0 Z " fill="#12C795" transform="translate(717,616)"/>
<path d="M0 0 C2.51271199 1.11676088 4.3192554 2.27013919 6.4375 4.0625 C9.18785053 6.14203333 10.6948134 6.35508554 14 7 C19.62675101 10.19952508 19.62675101 10.19952508 20.91333008 12.95874023 C22.2883352 15.5416245 23.69338616 16.36126171 26.19921875 17.84765625 C27.50221924 18.62423584 27.50221924 18.62423584 28.83154297 19.41650391 C30.2452417 20.23127197 30.2452417 20.23127197 31.6875 21.0625 C32.6583252 21.62888184 33.62915039 22.19526367 34.62939453 22.77880859 C47.53920046 30.18865232 60.97163242 36.97344206 75 42 C75 42.66 75 43.32 75 44 C67.32296397 41.65785341 60.22799849 38.47436746 53 35 C51.906875 34.48566406 50.81375 33.97132813 49.6875 33.44140625 C31.87830382 24.84599559 14.93722577 13.99085999 0 1 C0 0.67 0 0.34 0 0 Z " fill="#0A4E39" transform="translate(336,696)"/>
<path d="M0 0 C-3.10846783 2.97894834 -5.78444692 3.36614971 -9.99609375 3.76171875 C-12.83480822 4.09926569 -15.32104683 5.01589475 -18 6 C-19.49863948 6.50406319 -20.99875158 7.00376096 -22.5 7.5 C-23.64855469 7.88285156 -23.64855469 7.88285156 -24.8203125 8.2734375 C-36 12 -36 12 -39.3125 12.875 C-42.83432396 13.94945477 -45.72771991 15.33177878 -49 17 C-52.31352697 18.38419917 -55.65616282 19.69108117 -59 21 C-59.86496094 21.36996094 -60.72992188 21.73992187 -61.62109375 22.12109375 C-64 23 -64 23 -67 23 C-64.91273287 20.71185606 -63.10255162 19.40233265 -60.25390625 18.203125 C-59.13737671 17.72999878 -59.13737671 17.72999878 -57.99829102 17.24731445 C-56.79257446 16.7536438 -56.79257446 16.7536438 -55.5625 16.25 C-54.72066162 15.90219482 -53.87882324 15.55438965 -53.01147461 15.19604492 C-40.26637148 9.99957404 -27.4126302 5.44316261 -14.0625 2.0625 C-13.2279126 1.85085205 -12.3933252 1.6392041 -11.53344727 1.42114258 C-7.61769339 0.47493274 -4.06095008 -0.27073001 0 0 Z " fill="#12F9C0" transform="translate(456,220)"/>
<path d="M0 0 C1.3261734 -0.0051059 1.3261734 -0.0051059 2.67913818 -0.01031494 C14.77311653 -0.03694934 26.57341305 0.72178572 38.5625 2.3125 C38.5625 2.6425 38.5625 2.9725 38.5625 3.3125 C36.97927806 3.34054921 35.395893 3.35934498 33.8125 3.375 C32.48992187 3.39240234 32.48992187 3.39240234 31.140625 3.41015625 C28.08851598 3.32685633 25.11606587 3.10458946 22.078125 2.82421875 C15.07030093 2.21825062 8.09428362 2.07992974 1.0625 2.0625 C0.40195618 2.06049591 -0.25858765 2.05849182 -0.93914795 2.056427 C-16.79384754 2.0447988 -32.89585778 3.05797006 -48.4375 6.3125 C-50.10416667 6.64583333 -51.77083333 6.97916667 -53.4375 7.3125 C-53.7675 6.6525 -54.0975 5.9925 -54.4375 5.3125 C-36.58635004 0.5272267 -18.37164346 0.01663841 0 0 Z " fill="#0FF6B8" transform="translate(511.4375,213.6875)"/>
<path d="M0 0 C-4.96372717 3.5078854 -9.57630256 5.66606008 -15.43359375 7.2578125 C-18.86882869 8.25125944 -22.1135908 9.59885386 -25.41796875 10.95703125 C-29.89838835 12.76682253 -34.44894592 14.3781958 -39 16 C-40.175625 16.433125 -41.35125 16.86625 -42.5625 17.3125 C-45 18 -45 18 -47 17 C-47.9075 17.28875 -48.815 17.5775 -49.75 17.875 C-55.6263058 19.72935663 -61.88947328 19.67794727 -68 20 C-65.10059827 18.41208392 -62.48495943 17.5557387 -59.24609375 16.921875 C-58.31901611 16.73391357 -57.39193848 16.54595215 -56.43676758 16.35229492 C-55.44700928 16.1535376 -54.45725098 15.95478027 -53.4375 15.75 C-37.77222439 12.45534338 -23.05442518 7.7028425 -8.31958008 1.4519043 C-7.52189209 1.11843994 -6.7242041 0.78497559 -5.90234375 0.44140625 C-5.19585693 0.13920166 -4.48937012 -0.16300293 -3.76147461 -0.47436523 C-2 -1 -2 -1 0 0 Z " fill="#1EF4B7" transform="translate(616,703)"/>
<path d="M0 0 C1.42134513 4.2640354 -0.35067988 7.03651755 -2 11 C-2.52980469 12.35351562 -2.52980469 12.35351562 -3.0703125 13.734375 C-5.74148279 20.42114566 -8.88617522 26.70710611 -12.359375 33.01171875 C-14.34497438 36.62834619 -16.18204813 40.29676472 -18 44 C-18.66572555 45.33380348 -19.33216707 46.66725044 -20 48 C-20.66 48 -21.32 48 -22 48 C-21.43437498 44.49457814 -20.56934739 41.86354459 -18.77734375 38.8046875 C-18.32480225 38.01513672 -17.87226074 37.22558594 -17.40600586 36.41210938 C-16.92139893 35.57486328 -16.43679199 34.73761719 -15.9375 33.875 C-10.80553017 24.81039306 -6.59545451 15.56800199 -2.78686523 5.88085938 C-1.9457301 3.87027759 -0.99438973 1.93875066 0 0 Z " fill="#13F1B3" transform="translate(745,562)"/>
<path d="M0 0 C0.66 0 1.32 0 2 0 C1.13293457 5.85269168 -3.20032789 9.3405945 -7.6875 12.75 C-16.10645779 19.46457639 -23.48265424 27.31051139 -31 35 C-31 32 -31 32 -29.54711914 30.23828125 C-28.88317139 29.60277344 -28.21922363 28.96726562 -27.53515625 28.3125 C-26.81779297 27.61382812 -26.10042969 26.91515625 -25.36132812 26.1953125 C-24.60271484 25.47085937 -23.84410156 24.74640625 -23.0625 24 C-21.56973855 22.56715298 -20.08124573 21.1298417 -18.59765625 19.6875 C-17.93258057 19.05199219 -17.26750488 18.41648437 -16.58227539 17.76171875 C-14.77262971 15.98229554 -14.77262971 15.98229554 -14 13 C-12.66666667 12 -11.33333333 11 -10 10 C-9.67 9.01 -9.34 8.02 -9 7 C-7.3364521 6.32558869 -5.66933058 5.6599679 -4 5 C-1.70710528 3.04190477 -1.70710528 3.04190477 0 1 C0 0.67 0 0.34 0 0 Z " fill="#12A57A" transform="translate(361,289)"/>
<path d="M0 0 C1.53720703 0.06574219 1.53720703 0.06574219 3.10546875 0.1328125 C9.47194078 0.42403613 15.79141995 0.91736685 22.125 1.625 C22.125 1.955 22.125 2.285 22.125 2.625 C3.645 2.955 -14.835 3.285 -33.875 3.625 C-33.875 2.965 -33.875 2.305 -33.875 1.625 C-32.9571875 1.56441406 -32.039375 1.50382813 -31.09375 1.44140625 C-29.8665625 1.35761719 -28.639375 1.27382812 -27.375 1.1875 C-25.56515625 1.06568359 -25.56515625 1.06568359 -23.71875 0.94140625 C-21.18707552 0.73300622 -18.66060927 0.44296868 -16.1484375 0.06640625 C-10.76062888 -0.63155393 -5.41034784 -0.27017967 0 0 Z " fill="#14F0B2" transform="translate(512.875,238.375)"/>
<path d="M0 0 C17.13581558 7.76405374 32.37283981 26.66207607 44 41 C43.505 41.99 43.505 41.99 43 43 C40.93553787 40.79347385 38.87339766 38.58485143 36.8125 36.375 C36.23435547 35.75753906 35.65621094 35.14007813 35.06054688 34.50390625 C32.35385324 31.59841591 29.70614826 28.68205686 27.19921875 25.6015625 C25.26722651 22.96929972 25.26722651 22.96929972 23 22 C23 21.34 23 20.68 23 20 C22.40316406 19.73316406 21.80632813 19.46632813 21.19140625 19.19140625 C18.95425676 17.97513068 17.65579933 16.79642741 15.9375 14.9375 C12.01676461 10.87155218 7.68168754 7.4197009 3.2578125 3.91796875 C1 2 1 2 0 0 Z " fill="#0A664C" transform="translate(661,292)"/>
<path d="M0 0 C1.98 0 3.96 0 6 0 C2.26790594 3.05797236 -1.89404611 5.16694535 -6.125 7.4375 C-15.813702 12.71261545 -24.9256027 18.73967089 -34 25 C-34.66 24.67 -35.32 24.34 -36 24 C-31.25 20 -31.25 20 -29 20 C-29 19.34 -29 18.68 -29 18 C-28.34 18 -27.68 18 -27 18 C-27 17.34 -27 16.68 -27 16 C-24.69 15.34 -22.38 14.68 -20 14 C-20 13.34 -20 12.68 -20 12 C-19.01 12 -18.02 12 -17 12 C-17 10.68 -17 9.36 -17 8 C-15.7315625 7.87625 -15.7315625 7.87625 -14.4375 7.75 C-11.42640747 7.09303436 -9.86727313 6.47579956 -7.3125 4.9375 C-4 3 -4 3 -1 3 C-0.67 2.01 -0.34 1.02 0 0 Z " fill="#15F9C0" transform="translate(401,264)"/>
<path d="M0 0 C0.66 0.33 1.32 0.66 2 1 C0.35 3.31 -1.3 5.62 -3 8 C-2.67 8.66 -2.34 9.32 -2 10 C-3.3921875 11.0828125 -3.3921875 11.0828125 -4.8125 12.1875 C-6.86837174 13.89039144 -8.01851481 15.03198013 -9.375 17.375 C-11.44385865 20.71700244 -14.07174101 22.83226497 -17.05859375 25.3515625 C-19.15392452 27.13069648 -21.09673417 29.01743143 -23 31 C-21.43468831 25.87806239 -18.25388614 22.34181338 -14.875 18.3125 C-13.7015327 16.89216681 -12.52835547 15.47159392 -11.35546875 14.05078125 C-10.7836084 13.36193848 -10.21174805 12.6730957 -9.62255859 11.96337891 C-7.44785887 9.33188099 -5.31496033 6.66982903 -3.1875 4 C-2.56230469 3.21625 -1.93710937 2.4325 -1.29296875 1.625 C-0.86628906 1.08875 -0.43960937 0.5525 0 0 Z " fill="#09AF82" transform="translate(305,302)"/>
<path d="M0 0 C0.33 0.99 0.66 1.98 1 3 C-1.87249103 4.77492743 -4.74843103 6.54419055 -7.625 8.3125 C-8.43324219 8.81201172 -9.24148438 9.31152344 -10.07421875 9.82617188 C-19.15831444 15.40218183 -19.15831444 15.40218183 -23 17 C-23.99 16.67 -24.98 16.34 -26 16 C-19.85779495 9.33006373 -11.31182266 5.36009852 -3 2 C-2.01 1.34 -1.02 0.68 0 0 Z " fill="#17CC99" transform="translate(651,681)"/>
<path d="M0 0 C0.66 0.33 1.32 0.66 2 1 C-7 10 -7 10 -9.14453125 12.140625 C-10.58511381 13.58424037 -12.01376872 15.03976279 -13.4375 16.5 C-17.26311334 20.2323057 -21.22617561 23.54857667 -26 26 C-26.66 25.67 -27.32 25.34 -28 25 C-25.06233919 21.00053408 -21.92768484 18.24574645 -17.9375 15.3125 C-11.58956688 10.57171887 -5.76639971 5.43127829 0 0 Z " fill="#12AA7D" transform="translate(681,655)"/>
<path d="M0 0 C0.99 0.33 1.98 0.66 3 1 C1.1875 3 1.1875 3 -1 5 C-1.99 5 -2.98 5 -4 5 C-5.96197506 5.97997959 -5.96197506 5.97997959 -7.9375 7.3125 C-8.64003906 7.76625 -9.34257812 8.22 -10.06640625 8.6875 C-11.53435406 9.68392518 -12.96460909 10.73614904 -14.375 11.8125 C-16 13 -16 13 -18 13 C-18.33 13.66 -18.66 14.32 -19 15 C-20.97888961 15.72693904 -22.97954558 16.39816251 -25 17 C-20.8366188 9.54060869 -14.73503002 6.39562789 -6.8203125 3.6953125 C-4.76000408 2.97457459 -4.76000408 2.97457459 -2.1875 1.25 C-1.465625 0.8375 -0.74375 0.425 0 0 Z " fill="#0ED5A2" transform="translate(375,249)"/>
<path d="M0 0 C2.625 1.625 2.625 1.625 3.625 3.625 C2.94050781 3.29757812 2.25601563 2.97015625 1.55078125 2.6328125 C-1.86412059 1.45651788 -4.58531284 1.42722854 -8.1875 1.5 C-9.92966797 1.52707031 -9.92966797 1.52707031 -11.70703125 1.5546875 C-12.58746094 1.57789063 -13.46789062 1.60109375 -14.375 1.625 C-14.643125 2.223125 -14.91125 2.82125 -15.1875 3.4375 C-16.375 5.625 -16.375 5.625 -17.98828125 6.92578125 C-20.22916491 9.67165278 -19.65743768 12.36309748 -19.5625 15.8125 C-19.53542969 17.08480469 -19.50835938 18.35710937 -19.48046875 19.66796875 C-19.42826172 21.13169922 -19.42826172 21.13169922 -19.375 22.625 C-22.18109672 19.28440867 -22.85439473 17.09453167 -22.65625 12.64453125 C-22.00137945 7.94219689 -19.86949038 4.85496675 -16.375 1.8125 C-11.0669766 -2.05793373 -6.09791125 -2.48433421 0 0 Z " fill="#C2CCCA" transform="translate(602.375,404.375)"/>
<path d="M0 0 C0 3.41321235 -0.66867466 4.39472885 -2.5 7.1875 C-3.19609375 8.26064453 -3.19609375 8.26064453 -3.90625 9.35546875 C-4.44765625 10.16951172 -4.44765625 10.16951172 -5 11 C-4.34 11.33 -3.68 11.66 -3 12 C-7.63313609 17.66272189 -7.63313609 17.66272189 -9.9375 19.78125 C-12.49427034 22.53171506 -14.01965723 25.42241776 -15.75 28.75 C-16.06582031 29.35199219 -16.38164062 29.95398438 -16.70703125 30.57421875 C-17.47797895 32.046028 -18.23992324 33.52254742 -19 35 C-19.33 34.34 -19.66 33.68 -20 33 C-19.00013648 30.7256191 -17.94250575 28.60977179 -16.75 26.4375 C-16.39736084 25.78507324 -16.04472168 25.13264648 -15.68139648 24.46044922 C-4.90573897 4.90573897 -4.90573897 4.90573897 0 0 Z " fill="#088661" transform="translate(281,333)"/>
<path d="M0 0 C0 3.67455545 -0.92213907 4.63185195 -3.0625 7.5625 C-3.69414062 8.43777344 -4.32578125 9.31304687 -4.9765625 10.21484375 C-5.64429688 11.13394531 -6.31203125 12.05304688 -7 13 C-8.31607845 14.87248999 -9.62876698 16.74736875 -10.9375 18.625 C-12.46875 20.8125 -12.46875 20.8125 -14 23 C-15 21 -15 21 -14.328125 18.72265625 C-13.97234375 17.84480469 -13.6165625 16.96695312 -13.25 16.0625 C-12.90453125 15.18722656 -12.5590625 14.31195313 -12.203125 13.41015625 C-11.0326563 11.06541864 -9.94969547 9.71257034 -8 8 C-7.54625 7.54625 -7.0925 7.0925 -6.625 6.625 C-4.41666667 4.41666667 -2.20833333 2.20833333 0 0 Z " fill="#0F9B73" transform="translate(316,338)"/>
<path d="M0 0 C0.77565766 2.26033681 1.17033637 3.52460843 0.35083008 5.81176758 C-0.00599854 6.41657959 -0.36282715 7.0213916 -0.73046875 7.64453125 C-1.12169922 8.32193359 -1.51292969 8.99933594 -1.91601562 9.69726562 C-2.33560547 10.39529297 -2.75519531 11.09332031 -3.1875 11.8125 C-3.58775391 12.49892578 -3.98800781 13.18535156 -4.40039062 13.89257812 C-5.1987086 15.26019903 -6.00187921 16.62499975 -6.81005859 17.98681641 C-8.57442741 20.97183594 -10.28604502 23.98580332 -12 27 C-12.33 27 -12.66 27 -13 27 C-13.25 24.25 -13.25 24.25 -13 21 C-11.66807239 19.66526242 -10.33454601 18.33211956 -9 17 C-7.54130571 14.31573416 -7.54130571 14.31573416 -6.375 11.4375 C-5.06667419 8.36668433 -3.85896249 5.78844373 -2 3 C-1.34 3 -0.68 3 0 3 C0 2.01 0 1.02 0 0 Z " fill="#12EDB3" transform="translate(301,355)"/>
<path d="M0 0 C0 3 0 3 -1.3125 4.5 C-2.4375 5.5 -3.5625 6.5 -4.6875 7.5 C-6.3292523 9.04409629 -6.3292523 9.04409629 -6 12 C-7.53125 13.60546875 -7.53125 13.60546875 -9.5 15.1875 C-10.1496875 15.71730469 -10.799375 16.24710938 -11.46875 16.79296875 C-11.9740625 17.19128906 -12.479375 17.58960938 -13 18 C-13.66 17.67 -14.32 17.34 -15 17 C-12.81848334 12.98141667 -10.30019489 10.15018603 -7 7 C-5.72652186 5.73181699 -4.45576859 4.46089291 -3.1875 3.1875 C-2.125 2.125 -1.0625 1.0625 0 0 Z " fill="#12A97E" transform="translate(699,637)"/>
<path d="M0 0 C-1.63355352 4.2107125 -4.76223005 6.98539535 -7.9375 10.0625 C-8.47568359 10.59166016 -9.01386719 11.12082031 -9.56835938 11.66601562 C-11.04205208 13.1142685 -12.52082454 14.55734739 -14 16 C-15.00131033 16.99868795 -16.00166067 17.99834209 -17 19 C-17 14.55928248 -14.10714428 12.53750766 -11.1875 9.5 C-10.64029297 8.91863281 -10.09308594 8.33726562 -9.52929688 7.73828125 C-8.02917113 6.14905713 -6.52182042 4.56845145 -5 3 C-4.48606689 2.44248047 -3.97213379 1.88496094 -3.44262695 1.31054688 C-2 0 -2 0 0 0 Z " fill="#0CFBC3" transform="translate(319,292)"/>
<path d="M0 0 C0.33 0 0.66 0 1 0 C1.06058594 1.25296875 1.12117188 2.5059375 1.18359375 3.796875 C1.26802256 5.44792724 1.35266939 7.09896835 1.4375 8.75 C1.47681641 9.575 1.51613281 10.4 1.55664062 11.25 C1.59853516 12.04921875 1.64042969 12.8484375 1.68359375 13.671875 C1.72025146 14.4050293 1.75690918 15.13818359 1.79467773 15.89355469 C1.94606935 18.01543762 1.94606935 18.01543762 2.54101562 20.08203125 C3.22671501 22.94737934 2.59383762 25.3745258 2.0625 28.25 C1.86785156 29.32765625 1.67320312 30.4053125 1.47265625 31.515625 C1.31667969 32.33546875 1.16070312 33.1553125 1 34 C0.67 34 0.34 34 0 34 C0 22.78 0 11.56 0 0 Z " fill="#0EBA8A" transform="translate(264,480)"/>
<path d="M0 0 C0.99 0.33 1.98 0.66 3 1 C0.21641519 3.84137242 -2.57815727 6.67168155 -5.375 9.5 C-6.1690625 10.31082031 -6.963125 11.12164062 -7.78125 11.95703125 C-8.92207031 13.10751953 -8.92207031 13.10751953 -10.0859375 14.28125 C-10.7876709 14.99345703 -11.4894043 15.70566406 -12.21240234 16.43945312 C-14 18 -14 18 -16 18 C-16 17.01 -16 16.02 -16 15 C-15.01 15 -14.02 15 -13 15 C-12.67 14.01 -12.34 13.02 -12 12 C-10.57836167 10.80979117 -9.1528395 9.623586 -7.69921875 8.47265625 C-4.79337346 5.954257 -2.41963948 2.9773578 0 0 Z " fill="#16F9C5" transform="translate(344,304)"/>
<path d="M0 0 C0 0.33 0 0.66 0 1 C-1.30324219 1.19916016 -1.30324219 1.19916016 -2.6328125 1.40234375 C-3.78523437 1.57894531 -4.93765625 1.75554688 -6.125 1.9375 C-7.26195312 2.11152344 -8.39890625 2.28554688 -9.5703125 2.46484375 C-10.70210937 2.64144531 -11.83390625 2.81804688 -13 3 C-14.09054687 3.16628906 -15.18109375 3.33257813 -16.3046875 3.50390625 C-18.9579787 3.86318986 -18.9579787 3.86318986 -21 5 C-21.33 4.34 -21.66 3.68 -22 3 C-24.52733235 2.34444881 -24.52733235 2.34444881 -27 2 C-27 1.67 -27 1.34 -27 1 C-17.98865693 0.3668316 -9.04028922 -0.1723784 0 0 Z " fill="#21F7BA" transform="translate(547,723)"/>
<path d="M0 0 C2.51271199 1.11676088 4.3192554 2.27013919 6.4375 4.0625 C9.18785053 6.14203333 10.6948134 6.35508554 14 7 C16.04049422 8.2704964 18.05017465 9.59431196 20 11 C19.67 11.99 19.34 12.98 19 14 C18.2265625 13.3503125 18.2265625 13.3503125 17.4375 12.6875 C14.98401272 10.84703294 14.98401272 10.84703294 11.75 9.75 C7.08621789 7.8683005 3.50250215 4.54798919 0 1 C0 0.67 0 0.34 0 0 Z " fill="#0A7F5C" transform="translate(336,696)"/>
<path d="M0 0 C0.99 0.33 1.98 0.66 3 1 C3 2.32 3 3.64 3 5 C3.66 5.33 4.32 5.66 5 6 C5.62669199 8.16467461 6.15427374 10.35864524 6.625 12.5625 C6.88539063 13.76003906 7.14578125 14.95757813 7.4140625 16.19140625 C7.60742188 17.11824219 7.80078125 18.04507813 8 19 C7.01 19 6.02 19 5 19 C4.16338138 16.2092793 3.33057263 13.41751988 2.5 10.625 C2.26152344 9.8309375 2.02304688 9.036875 1.77734375 8.21875 C1.55175781 7.45820312 1.32617188 6.69765625 1.09375 5.9140625 C0.88427734 5.2123291 0.67480469 4.5105957 0.45898438 3.78759766 C0 2 0 2 0 0 Z " fill="#0AAC80" transform="translate(243,551)"/>
<path d="M0 0 C0 3 0 3 -2.51953125 5.62890625 C-3.60963132 6.61518726 -4.70767034 7.59274755 -5.8125 8.5625 C-6.35970703 9.05685547 -6.90691406 9.55121094 -7.47070312 10.06054688 C-9.8968145 12.23375452 -12.2860722 14.1907148 -15 16 C-15.99 15.67 -16.98 15.34 -18 15 C-15.75131288 13.0609583 -13.50111139 11.12372378 -11.25 9.1875 C-10.61578125 8.64029297 -9.9815625 8.09308594 -9.328125 7.52929688 C-6.28730038 4.91608821 -3.25718629 2.3441871 0 0 Z " fill="#10FBC3" transform="translate(340,272)"/>
<path d="M0 0 C4.3751418 1.63016101 6.96406541 4.92713234 10 8.3125 C10.52078125 8.88162109 11.0415625 9.45074219 11.578125 10.03710938 C14.51283704 13.26455153 17.31460053 16.55933193 20 20 C19.67 20.66 19.34 21.32 19 22 C16.95659511 19.81410249 14.91525286 17.62633649 12.875 15.4375 C12.02035156 14.52387695 12.02035156 14.52387695 11.1484375 13.59179688 C0 1.61989524 0 1.61989524 0 0 Z " fill="#095C44" transform="translate(685,313)"/>
<path d="M0 0 C0 0.99 0 1.98 0 3 C-3.72209483 5.97767587 -7.99056126 6.91154471 -12.4921875 8.16796875 C-14.90019047 8.96688562 -16.83972407 9.93485294 -19 11.25 C-19.99 11.8275 -20.98 12.405 -22 13 C-22.66 12.67 -23.32 12.34 -24 12 C-18.87948445 8.25948155 -14.18105321 5.45270516 -8.0859375 3.65625 C-5.22143432 2.75505799 -2.63801487 1.42046954 0 0 Z " fill="#0FC594" transform="translate(388,242)"/>
<path d="M0 0 C0 3.31266447 -0.55524605 5.03825439 -2 8 C-3.33333333 9.33333333 -4.66666667 10.66666667 -6 12 C-7.25436187 14.63222962 -7.25436187 14.63222962 -8 17 C-8.99 17 -9.98 17 -11 17 C-9.52869627 12.6426774 -7.16919385 9.28065866 -4.375 5.6875 C-3.95476562 5.13771484 -3.53453125 4.58792969 -3.1015625 4.02148438 C-2.07279961 2.67707832 -1.0370991 1.33798587 0 0 Z " fill="#07F1B5" transform="translate(287,327)"/>
<path d="M0 0 C0.99 0.33 1.98 0.66 3 1 C-3.435 6.94 -3.435 6.94 -10 13 C-10.99 12.67 -11.98 12.34 -13 12 C-8.71 8.04 -4.42 4.08 0 0 Z " fill="#17F9BB" transform="translate(682,656)"/>
<path d="M0 0 C-7.24581233 4.83054155 -15.53977464 4.5541074 -24 5 C-20.39561201 2.89056173 -16.61440413 2.1513179 -12.5625 1.375 C-11.90701172 1.2409375 -11.25152344 1.106875 -10.57617188 0.96875 C-7.00225146 0.26615381 -3.64175979 -0.15437132 0 0 Z " fill="#22F6BC" transform="translate(572,718)"/>
<path d="M0 0 C6.45927694 2.03005847 9.98157014 6.79092426 14 12 C9.70398876 11.51820435 7.66910061 9.00445443 4.75 6 C3.85796875 5.0925 2.9659375 4.185 2.046875 3.25 C0 1 0 1 0 0 Z " fill="#0ABB88" transform="translate(307,667)"/>
<path d="M0 0 C0.33 0.99 0.66 1.98 1 3 C3.01508358 3.73323796 3.01508358 3.73323796 5 4 C2.79142945 3.85780436 0.58315013 3.71108153 -1.625 3.5625 C-2.85476563 3.48128906 -4.08453125 3.40007812 -5.3515625 3.31640625 C-8.61532388 3.03336056 -11.77943859 2.58961047 -15 2 C-15 1.67 -15 1.34 -15 1 C-14.00097656 1.01160156 -13.00195312 1.02320313 -11.97265625 1.03515625 C-10.68230469 1.04417969 -9.39195312 1.05320313 -8.0625 1.0625 C-6.13083984 1.07990234 -6.13083984 1.07990234 -4.16015625 1.09765625 C-1.13701597 1.36532549 -1.13701597 1.36532549 0 0 Z " fill="#12EAAF" transform="translate(551,240)"/>
<path d="M0 0 C0 3.77910478 -0.99703962 4.46106101 -3.5 7.1875 C-4.47453125 8.26064453 -4.47453125 8.26064453 -5.46875 9.35546875 C-5.9740625 9.89816406 -6.479375 10.44085938 -7 11 C-7 7.3040893 -6.16512384 4.49537151 -5 1 C-4.34 1.33 -3.68 1.66 -3 2 C-2.01 1.34 -1.02 0.68 0 0 Z " fill="#10996F" transform="translate(325,327)"/>
<path d="M0 0 C0.33 0 0.66 0 1 0 C1 1.98 1 3.96 1 6 C0.34 5.67 -0.32 5.34 -1 5 C-1.2475 5.78375 -1.495 6.5675 -1.75 7.375 C-3.15389099 10.32317108 -4.00675737 10.9024777 -7 12 C-5.48109469 7.44328408 -3.04597738 3.68276708 0 0 Z " fill="#0D986F" transform="translate(722,606)"/>
<path d="M0 0 C0.99 0.33 1.98 0.66 3 1 C3.33 2.98 3.66 4.96 4 7 C3.67 7 3.34 7 3 7 C2.67 8.65 2.34 10.3 2 12 C1.34 11.67 0.68 11.34 0 11 C0 7.37 0 3.74 0 0 Z " fill="#0EB07F" transform="translate(784,519)"/>
<path d="M0 0 C0.99 0.33 1.98 0.66 3 1 C2.34 2.65 1.68 4.3 1 6 C-1.31 6 -3.62 6 -6 6 C-4.625 4.5 -4.625 4.5 -3 3 C-2.34 3 -1.68 3 -1 3 C-0.67 2.01 -0.34 1.02 0 0 Z " fill="#18D59E" transform="translate(623,696)"/>
<path d="M0 0 C0.99 0 1.98 0 3 0 C3.99 3.63 4.98 7.26 6 11 C5.01 11.495 5.01 11.495 4 12 C2.68 8.04 1.36 4.08 0 0 Z " fill="#0BA77B" transform="translate(250,574)"/>
<path d="M0 0 C0.66 0 1.32 0 2 0 C0.5140084 4.59306496 -1.85014682 7.43569245 -5 11 C-5.33 10.34 -5.66 9.68 -6 9 C-5.67 8.01 -5.34 7.02 -5 6 C-4.34 6 -3.68 6 -3 6 C-3 5.01 -3 4.02 -3 3 C-2.34 3 -1.68 3 -1 3 C-0.67 2.01 -0.34 1.02 0 0 Z " fill="#12F6BF" transform="translate(317,333)"/>
<path d="M0 0 C4.87685861 1.35468295 6.48592381 3.71675909 9 8 C2.1257764 5.28649068 2.1257764 5.28649068 0.875 2.4375 C0.58625 1.633125 0.2975 0.82875 0 0 Z " fill="#16A57C" transform="translate(367,676)"/>
<path d="M0 0 C1.32 0.33 2.64 0.66 4 1 C4 1.66 4 2.32 4 3 C4.598125 3.103125 5.19625 3.20625 5.8125 3.3125 C8.28243264 4.08876455 9.32251235 5.07088921 11 7 C6.96678237 5.78065514 3.45730521 4.44045073 0 2 C0 1.34 0 0.68 0 0 Z " fill="#0FC38D" transform="translate(375,720)"/>
<path d="M0 0 C1 3 1 3 -0.4375 6.1875 C-1.2109375 7.5796875 -1.2109375 7.5796875 -2 9 C-2.97608217 6.07175348 -3.08226668 4.04386724 -3 1 C-2.01 0.67 -1.02 0.34 0 0 Z " fill="#12DEA6" transform="translate(283,391)"/>
<path d="M0 0 C0.99 0.33 1.98 0.66 3 1 C1.1875 3 1.1875 3 -1 5 C-4 5 -4 5 -6 4 C-3.1875 1.9375 -3.1875 1.9375 0 0 Z " fill="#0CFCC5" transform="translate(375,249)"/>
<path d="M0 0 C1.32 0.66 2.64 1.32 4 2 C2.35 3.65 0.7 5.3 -1 7 C-1.625 5.1875 -1.625 5.1875 -2 3 C-1.34 2.01 -0.68 1.02 0 0 Z " fill="#0BD29D" transform="translate(321,286)"/>
<path d="M0 0 C-2.1554668 2.47878682 -3.71119485 3.57563804 -7 4 C-7.66 3.67 -8.32 3.34 -9 3 C-9 2.34 -9 1.68 -9 1 C-3.375 -1.125 -3.375 -1.125 0 0 Z " fill="#08C38C" transform="translate(617,735)"/>
<path d="M0 0 C1.258125 -0.04125 2.51625 -0.0825 3.8125 -0.125 C4.52019531 -0.14820313 5.22789062 -0.17140625 5.95703125 -0.1953125 C8 0 8 0 11 2 C9.35 2.66 7.7 3.32 6 4 C5.67 3.34 5.34 2.68 5 2 C2.47266765 1.34444881 2.47266765 1.34444881 0 1 C0 0.67 0 0.34 0 0 Z " fill="#1CEBA5" transform="translate(520,724)"/>
<path d="M0 0 C-1.625 1.625 -1.625 1.625 -4 3 C-7.25 2.1875 -7.25 2.1875 -10 1 C-6.1496895 -1.56687367 -4.41430237 -0.83288724 0 0 Z " fill="#1AF3AF" transform="translate(503,725)"/>
<path d="M0 0 C3.35620271 1.38877354 5.07298728 2.91677965 7 6 C7 6.66 7 7.32 7 8 C2.60841671 6.5361389 2.12052567 4.02168662 0 0 Z " fill="#09AE7F" transform="translate(278,630)"/>
<path d="M0 0 C0.66 0.33 1.32 0.66 2 1 C-0.475 4.465 -0.475 4.465 -3 8 C-3.66 7.34 -4.32 6.68 -5 6 C-3.35 4.02 -1.7 2.04 0 0 Z " fill="#10EFB6" transform="translate(717,616)"/>
<path d="M0 0 C0.66 0.66 1.32 1.32 2 2 C0.68 4.31 -0.64 6.62 -2 9 C-2.33 9 -2.66 9 -3 9 C-3.36923077 3.46153846 -3.36923077 3.46153846 -1.5 1.125 C-1.005 0.75375 -0.51 0.3825 0 0 Z " fill="#14E5AC" transform="translate(291,373)"/>
<path d="M0 0 C-0.34879632 3.25543229 -1.02133261 4.01873107 -3.5625 6.25 C-4.366875 6.8275 -5.17125 7.405 -6 8 C-5.62403791 5.21788056 -5.32681541 3.4120716 -3.5625 1.1875 C-2 0 -2 0 0 0 Z " fill="#16F6BF" transform="translate(327,323)"/>
<path d="M0 0 C0.99 0.66 1.98 1.32 3 2 C3 2.66 3 3.32 3 4 C3.99 4.33 4.98 4.66 6 5 C5.34 5.66 4.68 6.32 4 7 C2.02 5.35 0.04 3.7 -2 2 C-1.34 1.34 -0.68 0.68 0 0 Z " fill="#0DB484" transform="translate(330,687)"/>
<path d="M0 0 C1.32 0.66 2.64 1.32 4 2 C2.35 2 0.7 2 -1 2 C-0.67 1.34 -0.34 0.68 0 0 Z " fill="#E1EDEA" transform="translate(426,571)"/>
<path d="M0 0 C0.99 0.33 1.98 0.66 3 1 C2.34 1.66 1.68 2.32 1 3 C0.67 2.01 0.34 1.02 0 0 Z " fill="#E2EEEB" transform="translate(430,571)"/>
<path d="M0 0 C0.33 0.99 0.66 1.98 1 3 C0.01 3.495 0.01 3.495 -1 4 C-0.67 2.68 -0.34 1.36 0 0 Z " fill="#E1EDEA" transform="translate(405,556)"/>
<path d="M0 0 C0.99 0.99 1.98 1.98 3 3 C2.01 2.67 1.02 2.34 0 2 C0 1.34 0 0.68 0 0 Z " fill="#E7F0ED" transform="translate(381,533)"/>
<path d="M0 0 C0.33 0.66 0.66 1.32 1 2 C1.66 2.33 2.32 2.66 3 3 C2.01 3 1.02 3 0 3 C0 2.01 0 1.02 0 0 Z " fill="#19A47D" transform="translate(789,444)"/>
<path d="M0 0 C1.32 0.33 2.64 0.66 4 1 C3.01 1.495 3.01 1.495 2 2 C1.34 1.34 0.68 0.68 0 0 Z " fill="#E5F1EE" transform="translate(597,401)"/>
<path d="M0 0 C0.99 0 1.98 0 3 0 C2.67 0.66 2.34 1.32 2 2 C1.34 1.34 0.68 0.68 0 0 Z " fill="#10A479" transform="translate(411,742)"/>
<path d="M0 0 C0.66 0 1.32 0 2 0 C2 0.66 2 1.32 2 2 C1.34 2 0.68 2 0 2 C0 1.34 0 0.68 0 0 Z " fill="#E6F0ED" transform="translate(400,552)"/>
<path d="M0 0 C0.99 0.33 1.98 0.66 3 1 C2.01 1 1.02 1 0 1 C0 0.67 0 0.34 0 0 Z " fill="#E6EFED" transform="translate(378,531)"/>
<path d="M0 0 C0.99 0.495 0.99 0.495 2 1 C1.67 1.66 1.34 2.32 1 3 C0.67 2.01 0.34 1.02 0 0 Z " fill="#E7F0EE" transform="translate(376,528)"/>
<path d="M0 0 C0.66 0.33 1.32 0.66 2 1 C1.01 1 0.02 1 -1 1 C-0.67 0.67 -0.34 0.34 0 0 Z " fill="#1AA67E" transform="translate(789,526)"/>
<path d="M0 0 C1 4 1 4 1 4 Z " fill="#F5F8F8" transform="translate(578,418)"/>
<path d="M0 0 C4 1 4 1 4 1 Z " fill="#1ACC97" transform="translate(547,246)"/>
<path d="M0 0 C0.66 0.66 1.32 1.32 2 2 C1.34 2 0.68 2 0 2 C0 1.34 0 0.68 0 0 Z " fill="#D8E7E4" transform="translate(466,597)"/>
<path d="M0 0 C3 1 3 1 3 1 Z " fill="#DCECE6" transform="translate(598,571)"/>
<path d="M0 0 C0.99 0.495 0.99 0.495 2 1 C1.01 1.495 1.01 1.495 0 2 C0 1.34 0 0.68 0 0 Z " fill="#E0EDE9" transform="translate(413,566)"/>
<path d="M0 0 C0.66 0 1.32 0 2 0 C1.67 0.66 1.34 1.32 1 2 C0.67 1.34 0.34 0.68 0 0 Z " fill="#F6FBFB" transform="translate(436,538)"/>
<path d="M0 0 C0.66 0.66 1.32 1.32 2 2 C1.34 2 0.68 2 0 2 C0 1.34 0 0.68 0 0 Z " fill="#E6EFED" transform="translate(384,536)"/>
<path d="" fill="#DFEDE8" transform="translate(0,0)"/>
<path d="" fill="#15A57E" transform="translate(0,0)"/>
<path d="M0 0 C3 1 3 1 3 1 Z " fill="#E5EFEC" transform="translate(360,515)"/>
<path d="M0 0 C0.66 0 1.32 0 2 0 C1.67 0.66 1.34 1.32 1 2 C0.67 1.34 0.34 0.68 0 0 Z " fill="#FBFEFD" transform="translate(396,500)"/>
<path d="" fill="#F8FBF9" transform="translate(0,0)"/>
<path d="" fill="#22B58E" transform="translate(0,0)"/>
<path d="" fill="#F8FBFB" transform="translate(0,0)"/>
<path d="" fill="#20B98C" transform="translate(0,0)"/>
<path d="" fill="#18AF84" transform="translate(0,0)"/>
<path d="M0 0 C0.66 0 1.32 0 2 0 C1.67 0.66 1.34 1.32 1 2 C0.67 1.34 0.34 0.68 0 0 Z " fill="#F5F9F9" transform="translate(619,466)"/>
<path d="M0 0 C0.66 0.66 1.32 1.32 2 2 C1.34 2 0.68 2 0 2 C0 1.34 0 0.68 0 0 Z " fill="#F6FAF9" transform="translate(420,454)"/>
<path d="M0 0 C0.66 0 1.32 0 2 0 C1.67 0.66 1.34 1.32 1 2 C0.67 1.34 0.34 0.68 0 0 Z " fill="#F7FBFA" transform="translate(604,451)"/>
<path d="" fill="#F8FBFA" transform="translate(0,0)"/>
<path d="" fill="#F7FAF9" transform="translate(0,0)"/>
<path d="M0 0 C0.66 0.66 1.32 1.32 2 2 C1.34 2 0.68 2 0 2 C0 1.34 0 0.68 0 0 Z " fill="#1BB88B" transform="translate(747,422)"/>
<path d="M0 0 C0.66 0.66 1.32 1.32 2 2 C1.34 2 0.68 2 0 2 C0 1.34 0 0.68 0 0 Z " fill="#EBF5F2" transform="translate(444,413)"/>
<path d="" fill="#21C297" transform="translate(0,0)"/>
<path d="M0 0 C0.33 0.66 0.66 1.32 1 2 C0.34 1.67 -0.32 1.34 -1 1 C-0.67 0.67 -0.34 0.34 0 0 Z " fill="#F1F6F6" transform="translate(522,401)"/>
<path d="" fill="#EFF5F3" transform="translate(0,0)"/>
<path d="M0 0 C0.99 0.495 0.99 0.495 2 1 C1.01 1.495 1.01 1.495 0 2 C0 1.34 0 0.68 0 0 Z " fill="#18B68A" transform="translate(698,331)"/>
<path d="M0 0 C0.99 0.495 0.99 0.495 2 1 C1.01 1.495 1.01 1.495 0 2 C0 1.34 0 0.68 0 0 Z " fill="#17BD90" transform="translate(657,292)"/>
<path d="M0 0 C3 1 3 1 3 1 Z " fill="#23E4A9" transform="translate(369,248)"/>
<path d="M0 0 C3 1 3 1 3 1 Z " fill="#23DFA6" transform="translate(472,213)"/>
<path d="M0 0 C2 1 2 1 2 1 Z " fill="#0EAA7D" transform="translate(478,758)"/>
<path d="M0 0 C2 1 2 1 2 1 Z " fill="#14AA81" transform="translate(580,751)"/>
<path d="M0 0 C2 1 2 1 2 1 Z " fill="#10A479" transform="translate(395,735)"/>
<path d="" fill="#11AD81" transform="translate(0,0)"/>
<path d="M0 0 C2 1 2 1 2 1 Z " fill="#12A37B" transform="translate(378,727)"/>
<path d="M0 0 C2 1 2 1 2 1 Z " fill="#15A179" transform="translate(369,725)"/>
<path d="M0 0 C2 1 2 1 2 1 Z " fill="#20C997" transform="translate(389,688)"/>
<path d="" fill="#13AE82" transform="translate(0,0)"/>
<path d="M0 0 C2 1 2 1 2 1 Z " fill="#22C695" transform="translate(376,680)"/>
<path d="" fill="#10A379" transform="translate(0,0)"/>
<path d="M0 0 C2 1 2 1 2 1 Z " fill="#1AC18E" transform="translate(350,660)"/>
<path d="" fill="#23DA9F" transform="translate(0,0)"/>
<path d="M0 0 C2 1 2 1 2 1 Z " fill="#16A17A" transform="translate(267,622)"/>
<path d="" fill="#1CBF8E" transform="translate(0,0)"/>
<path d="" fill="#D8E6E2" transform="translate(0,0)"/>
<path d="M0 0 C2 1 2 1 2 1 Z " fill="#E6EFED" transform="translate(491,582)"/>
<path d="M0 0 C2 1 2 1 2 1 Z " fill="#DDEAE8" transform="translate(596,572)"/>
<path d="" fill="#DFEBE8" transform="translate(0,0)"/>
<path d="M0 0 C2 1 2 1 2 1 Z " fill="#DEECE7" transform="translate(591,571)"/>
<path d="M0 0 C2 1 2 1 2 1 Z " fill="#E0EEE9" transform="translate(423,571)"/>
<path d="" fill="#E7F1EE" transform="translate(0,0)"/>
<path d="" fill="#F2F7F6" transform="translate(0,0)"/>
<path d="" fill="#F2F8F8" transform="translate(0,0)"/>
<path d="" fill="#ECF5F2" transform="translate(0,0)"/>
<path d="M0 0 C2 1 2 1 2 1 Z " fill="#F4FAF9" transform="translate(446,546)"/>
<path d="" fill="#20B28A" transform="translate(0,0)"/>
<path d="M0 0 C2 1 2 1 2 1 Z " fill="#E5EFEB" transform="translate(392,545)"/>
<path d="" fill="#E3EEEB" transform="translate(0,0)"/>
<path d="M0 0 C2 1 2 1 2 1 Z " fill="#E7F0EC" transform="translate(386,539)"/>
<path d="M0 0 C2 1 2 1 2 1 Z " fill="#E4EFEB" transform="translate(369,523)"/>
<path d="" fill="#20C994" transform="translate(0,0)"/>
<path d="M0 0 C2 1 2 1 2 1 Z " fill="#F8FCFB" transform="translate(414,517)"/>
<path d="" fill="#FAFCFC" transform="translate(0,0)"/>
<path d="M0 0 C2 1 2 1 2 1 Z " fill="#E5EFEC" transform="translate(355,509)"/>
<path d="" fill="#F8FCFB" transform="translate(0,0)"/>
<path d="" fill="#17AC82" transform="translate(0,0)"/>
<path d="" fill="#F9FCFC" transform="translate(0,0)"/>
<path d="" fill="#F9FCFB" transform="translate(0,0)"/>
<path d="" fill="#CBE6DF" transform="translate(0,0)"/>
<path d="" fill="#F8FBFB" transform="translate(0,0)"/>
<path d="M0 0 C2 1 2 1 2 1 Z " fill="#F6FAF9" transform="translate(526,488)"/>
<path d="" fill="#F8FBFA" transform="translate(0,0)"/>
<path d="" fill="#F7F8F8" transform="translate(0,0)"/>
<path d="M0 0 C2 1 2 1 2 1 Z " fill="#F6FAFB" transform="translate(637,484)"/>
<path d="" fill="#FAFCFC" transform="translate(0,0)"/>
<path d="" fill="#F7FAF9" transform="translate(0,0)"/>
<path d="M0 0 C2 1 2 1 2 1 Z " fill="#DEECE9" transform="translate(670,468)"/>
<path d="" fill="#F7FAF9" transform="translate(0,0)"/>
<path d="" fill="#F9FBFB" transform="translate(0,0)"/>
<path d="" fill="#1AAB84" transform="translate(0,0)"/>
<path d="" fill="#F5FAF8" transform="translate(0,0)"/>
<path d="M0 0 C2 1 2 1 2 1 Z " fill="#F5F9F9" transform="translate(612,460)"/>
<path d="" fill="#1BBE8C" transform="translate(0,0)"/>
<path d="" fill="#1BB989" transform="translate(0,0)"/>
<path d="" fill="#F5FAFA" transform="translate(0,0)"/>
<path d="" fill="#1AA27B" transform="translate(0,0)"/>
<path d="M0 0 C2 1 2 1 2 1 Z " fill="#F4FAFA" transform="translate(579,430)"/>
<path d="" fill="#F3F6F5" transform="translate(0,0)"/>
<path d="" fill="#EDF6F3" transform="translate(0,0)"/>
<path d="" fill="#EAF4F2" transform="translate(0,0)"/>
<path d="" fill="#19B486" transform="translate(0,0)"/>
<path d="" fill="#1DB78A" transform="translate(0,0)"/>
<path d="M0 0 C2 1 2 1 2 1 Z " fill="#E7F3F0" transform="translate(438,405)"/>
<path d="M0 0 C2 1 2 1 2 1 Z " fill="#E3F0ED" transform="translate(604,404)"/>
<path d="M0 0 C2 1 2 1 2 1 Z " fill="#E1EFEC" transform="translate(594,401)"/>
<path d="M0 0 C2 1 2 1 2 1 Z " fill="#1CBD8E" transform="translate(241,400)"/>
<path d="" fill="#DAEAE6" transform="translate(0,0)"/>
<path d="M0 0 C2 1 2 1 2 1 Z " fill="#E6F0EE" transform="translate(536,376)"/>
<path d="" fill="#16B98A" transform="translate(0,0)"/>
<path d="" fill="#1BC896" transform="translate(0,0)"/>
<path d="M0 0 C2 1 2 1 2 1 Z " fill="#18BA8C" transform="translate(696,328)"/>
<path d="M0 0 C2 1 2 1 2 1 Z " fill="#1CE1A5" transform="translate(297,307)"/>
<path d="" fill="#1BE0A6" transform="translate(0,0)"/>
<path d="" fill="#17BD8F" transform="translate(0,0)"/>
<path d="" fill="#24DDAB" transform="translate(0,0)"/>
<path d="M0 0 C2 1 2 1 2 1 Z " fill="#25E5AE" transform="translate(372,287)"/>
<path d="M0 0 C2 1 2 1 2 1 Z " fill="#14B786" transform="translate(698,280)"/>
<path d="M0 0 C2 1 2 1 2 1 Z " fill="#18BF8E" transform="translate(622,270)"/>
<path d="M0 0 C2 1 2 1 2 1 Z " fill="#1EDCA0" transform="translate(481,245)"/>
<path d="" fill="#1FE8AE" transform="translate(0,0)"/>
<path d="M0 0 C2 1 2 1 2 1 Z " fill="#18CC98" transform="translate(569,216)"/>
<path d="" fill="#5E6360" transform="translate(0,0)"/>
<path d="" fill="#646D68" transform="translate(0,0)"/>
<path d="" fill="#606463" transform="translate(0,0)"/>
<path d="" fill="#666E6B" transform="translate(0,0)"/>
<path d="" fill="#606361" transform="translate(0,0)"/>
<path d="" fill="#656F6B" transform="translate(0,0)"/>
<path d="" fill="#646D67" transform="translate(0,0)"/>
<path d="" fill="#626B6A" transform="translate(0,0)"/>
<path d="" fill="#64706B" transform="translate(0,0)"/>
<path d="" fill="#595B5A" transform="translate(0,0)"/>
<path d="" fill="#5B5E5C" transform="translate(0,0)"/>
<path d="" fill="#65706A" transform="translate(0,0)"/>
<path d="" fill="#636F6A" transform="translate(0,0)"/>
<path d="" fill="#626F69" transform="translate(0,0)"/>
<path d="" fill="#5C5F5D" transform="translate(0,0)"/>
<path d="" fill="#5F6762" transform="translate(0,0)"/>
<path d="" fill="#595B5B" transform="translate(0,0)"/>
<path d="" fill="#616B65" transform="translate(0,0)"/>
<path d="" fill="#5A5E5B" transform="translate(0,0)"/>
<path d="" fill="#5F6764" transform="translate(0,0)"/>
<path d="" fill="#5A5C5B" transform="translate(0,0)"/>
<path d="" fill="#595C5A" transform="translate(0,0)"/>
<path d="" fill="#5C5C5B" transform="translate(0,0)"/>
<path d="" fill="#5B5E5B" transform="translate(0,0)"/>
<path d="" fill="#5E6765" transform="translate(0,0)"/>
<path d="" fill="#626E67" transform="translate(0,0)"/>
<path d="" fill="#60706A" transform="translate(0,0)"/>
<path d="" fill="#606F69" transform="translate(0,0)"/>
<path d="" fill="#607068" transform="translate(0,0)"/>
<path d="" fill="#5F706A" transform="translate(0,0)"/>
<path d="" fill="#5F6D68" transform="translate(0,0)"/>
<path d="" fill="#5E5F5E" transform="translate(0,0)"/>
<path d="" fill="#5C5C5D" transform="translate(0,0)"/>
<path d="" fill="#5B5E5D" transform="translate(0,0)"/>
<path d="" fill="#5B605C" transform="translate(0,0)"/>
<path d="" fill="#5C6864" transform="translate(0,0)"/>
<path d="" fill="#5F6E65" transform="translate(0,0)"/>
<path d="" fill="#5E706A" transform="translate(0,0)"/>
<path d="" fill="#5E6A64" transform="translate(0,0)"/>
<path d="" fill="#5D6F68" transform="translate(0,0)"/>
<path d="" fill="#5C6360" transform="translate(0,0)"/>
<path d="" fill="#5B5D5B" transform="translate(0,0)"/>
<path d="" fill="#5A5D5B" transform="translate(0,0)"/>
<path d="" fill="#5C5E5D" transform="translate(0,0)"/>
<path d="" fill="#5E6A63" transform="translate(0,0)"/>
<path d="" fill="#5F706A" transform="translate(0,0)"/>
<path d="" fill="#5D7369" transform="translate(0,0)"/>
<path d="" fill="#5E6B66" transform="translate(0,0)"/>
<path d="" fill="#5B615D" transform="translate(0,0)"/>
<path d="" fill="#5B5D5C" transform="translate(0,0)"/>
<path d="" fill="#5C615F" transform="translate(0,0)"/>
<path d="" fill="#5C5E5D" transform="translate(0,0)"/>
<path d="" fill="#5E6863" transform="translate(0,0)"/>
<path d="" fill="#5C6F67" transform="translate(0,0)"/>
<path d="" fill="#5E6D66" transform="translate(0,0)"/>
<path d="" fill="#5C6C66" transform="translate(0,0)"/>
<path d="" fill="#5D605D" transform="translate(0,0)"/>
<path d="" fill="#5A7169" transform="translate(0,0)"/>
<path d="" fill="#5E6863" transform="translate(0,0)"/>
<path d="" fill="#5F6060" transform="translate(0,0)"/>
<path d="" fill="#606261" transform="translate(0,0)"/>
<path d="" fill="#5E605E" transform="translate(0,0)"/>
<path d="" fill="#55776A" transform="translate(0,0)"/>
<path d="" fill="#5A6F68" transform="translate(0,0)"/>
<path d="" fill="#53756A" transform="translate(0,0)"/>
<path d="" fill="#4C796A" transform="translate(0,0)"/>
<path d="" fill="#537869" transform="translate(0,0)"/>
<path d="" fill="#3E826C" transform="translate(0,0)"/>
<path d="" fill="#646565" transform="translate(0,0)"/>
<path d="" fill="#636664" transform="translate(0,0)"/>
<path d="" fill="#63716B" transform="translate(0,0)"/>
<path d="" fill="#11A77A" transform="translate(0,0)"/>
<path d="" fill="#646F69" transform="translate(0,0)"/>
<path d="" fill="#11A97B" transform="translate(0,0)"/>
<path d="" fill="#0EA475" transform="translate(0,0)"/>
<path d="" fill="#10A87D" transform="translate(0,0)"/>
<path d="" fill="#13A97C" transform="translate(0,0)"/>
<path d="" fill="#16A57A" transform="translate(0,0)"/>
<path d="" fill="#11A97C" transform="translate(0,0)"/>
<path d="" fill="#0EA97C" transform="translate(0,0)"/>
<path d="" fill="#12A579" transform="translate(0,0)"/>
<path d="" fill="#11AC81" transform="translate(0,0)"/>
<path d="" fill="#10A87A" transform="translate(0,0)"/>
<path d="" fill="#15A379" transform="translate(0,0)"/>
<path d="" fill="#17A578" transform="translate(0,0)"/>
<path d="" fill="#14AD80" transform="translate(0,0)"/>
<path d="" fill="#11A67B" transform="translate(0,0)"/>
<path d="" fill="#0FA37C" transform="translate(0,0)"/>
<path d="" fill="#11A87C" transform="translate(0,0)"/>
<path d="" fill="#13A47A" transform="translate(0,0)"/>
<path d="" fill="#17A67A" transform="translate(0,0)"/>
<path d="" fill="#17AF7F" transform="translate(0,0)"/>
<path d="" fill="#17A277" transform="translate(0,0)"/>
<path d="" fill="#17A279" transform="translate(0,0)"/>
<path d="" fill="#15A579" transform="translate(0,0)"/>
<path d="" fill="#11A078" transform="translate(0,0)"/>
<path d="" fill="#23D39D" transform="translate(0,0)"/>
<path d="" fill="#64716E" transform="translate(0,0)"/>
<path d="" fill="#12A379" transform="translate(0,0)"/>
<path d="" fill="#23DA9D" transform="translate(0,0)"/>
<path d="" fill="#23CD97" transform="translate(0,0)"/>
<path d="" fill="#22D8A1" transform="translate(0,0)"/>
<path d="" fill="#23D49F" transform="translate(0,0)"/>
<path d="" fill="#23D49D" transform="translate(0,0)"/>
<path d="" fill="#17B081" transform="translate(0,0)"/>
<path d="" fill="#16AC83" transform="translate(0,0)"/>
<path d="" fill="#5A776D" transform="translate(0,0)"/>
<path d="" fill="#26D8A1" transform="translate(0,0)"/>
<path d="" fill="#2AD69D" transform="translate(0,0)"/>
<path d="" fill="#21CA95" transform="translate(0,0)"/>
<path d="" fill="#13A177" transform="translate(0,0)"/>
<path d="" fill="#24D79D" transform="translate(0,0)"/>
<path d="" fill="#24CD9A" transform="translate(0,0)"/>
<path d="" fill="#15B584" transform="translate(0,0)"/>
<path d="" fill="#11A379" transform="translate(0,0)"/>
<path d="" fill="#11A77B" transform="translate(0,0)"/>
<path d="" fill="#23D69D" transform="translate(0,0)"/>
<path d="" fill="#25CB97" transform="translate(0,0)"/>
<path d="" fill="#129F76" transform="translate(0,0)"/>
<path d="" fill="#21CB98" transform="translate(0,0)"/>
<path d="" fill="#1FC896" transform="translate(0,0)"/>
<path d="" fill="#23C694" transform="translate(0,0)"/>
<path d="" fill="#21CB97" transform="translate(0,0)"/>
<path d="" fill="#6E7371" transform="translate(0,0)"/>
<path d="" fill="#23C291" transform="translate(0,0)"/>
<path d="" fill="#23C797" transform="translate(0,0)"/>
<path d="" fill="#11A17A" transform="translate(0,0)"/>
<path d="" fill="#28D9A0" transform="translate(0,0)"/>
<path d="" fill="#29DCA2" transform="translate(0,0)"/>
<path d="" fill="#26D8A0" transform="translate(0,0)"/>
<path d="" fill="#3E8670" transform="translate(0,0)"/>
<path d="" fill="#1FC38F" transform="translate(0,0)"/>
<path d="" fill="#14B385" transform="translate(0,0)"/>
<path d="" fill="#13A379" transform="translate(0,0)"/>
<path d="" fill="#12B383" transform="translate(0,0)"/>
<path d="" fill="#1AA27A" transform="translate(0,0)"/>
<path d="" fill="#20C391" transform="translate(0,0)"/>
<path d="" fill="#23D89F" transform="translate(0,0)"/>
<path d="" fill="#27DBA1" transform="translate(0,0)"/>
<path d="" fill="#159E77" transform="translate(0,0)"/>
<path d="" fill="#129E75" transform="translate(0,0)"/>
<path d="" fill="#15B183" transform="translate(0,0)"/>
<path d="" fill="#15A37A" transform="translate(0,0)"/>
<path d="" fill="#14A177" transform="translate(0,0)"/>
<path d="" fill="#16BA8C" transform="translate(0,0)"/>
<path d="" fill="#24D89D" transform="translate(0,0)"/>
<path d="" fill="#18AE83" transform="translate(0,0)"/>
<path d="" fill="#737878" transform="translate(0,0)"/>
<path d="" fill="#13A17A" transform="translate(0,0)"/>
<path d="" fill="#1BDA9E" transform="translate(0,0)"/>
<path d="" fill="#23DAA1" transform="translate(0,0)"/>
<path d="" fill="#11A076" transform="translate(0,0)"/>
<path d="" fill="#23D99D" transform="translate(0,0)"/>
<path d="" fill="#1AA37A" transform="translate(0,0)"/>
<path d="" fill="#25D5A0" transform="translate(0,0)"/>
<path d="" fill="#1EBF8E" transform="translate(0,0)"/>
<path d="" fill="#627A70" transform="translate(0,0)"/>
<path d="" fill="#11A579" transform="translate(0,0)"/>
<path d="" fill="#21B78D" transform="translate(0,0)"/>
<path d="" fill="#22D79D" transform="translate(0,0)"/>
<path d="" fill="#159F79" transform="translate(0,0)"/>
<path d="" fill="#777A79" transform="translate(0,0)"/>
<path d="" fill="#737876" transform="translate(0,0)"/>
<path d="" fill="#15A078" transform="translate(0,0)"/>
<path d="" fill="#17A279" transform="translate(0,0)"/>
<path d="" fill="#15A379" transform="translate(0,0)"/>
<path d="" fill="#20BD8E" transform="translate(0,0)"/>
<path d="" fill="#21B78C" transform="translate(0,0)"/>
<path d="" fill="#21B78B" transform="translate(0,0)"/>
<path d="" fill="#1AA076" transform="translate(0,0)"/>
<path d="" fill="#21D9A0" transform="translate(0,0)"/>
<path d="" fill="#21B68A" transform="translate(0,0)"/>
<path d="" fill="#16A47A" transform="translate(0,0)"/>
<path d="" fill="#15A27A" transform="translate(0,0)"/>
<path d="" fill="#DBEBE3" transform="translate(0,0)"/>
<path d="" fill="#D8E8E2" transform="translate(0,0)"/>
<path d="" fill="#D8E7E0" transform="translate(0,0)"/>
<path d="" fill="#119F79" transform="translate(0,0)"/>
<path d="" fill="#25D09C" transform="translate(0,0)"/>
<path d="" fill="#DEECE6" transform="translate(0,0)"/>
<path d="" fill="#D8E7E3" transform="translate(0,0)"/>
<path d="" fill="#DFEDE8" transform="translate(0,0)"/>
<path d="" fill="#1BA97F" transform="translate(0,0)"/>
<path d="" fill="#E1EAE7" transform="translate(0,0)"/>
<path d="" fill="#20D39C" transform="translate(0,0)"/>
<path d="" fill="#16A57D" transform="translate(0,0)"/>
<path d="" fill="#E1EAE9" transform="translate(0,0)"/>
<path d="" fill="#E5EDEC" transform="translate(0,0)"/>
<path d="" fill="#777C78" transform="translate(0,0)"/>
<path d="" fill="#13A279" transform="translate(0,0)"/>
<path d="" fill="#E8F1ED" transform="translate(0,0)"/>
<path d="" fill="#1DD198" transform="translate(0,0)"/>
<path d="" fill="#21B48C" transform="translate(0,0)"/>
<path d="" fill="#DCEAE6" transform="translate(0,0)"/>
<path d="" fill="#DEEDE9" transform="translate(0,0)"/>
<path d="" fill="#E5F0EC" transform="translate(0,0)"/>
<path d="" fill="#D9EAE5" transform="translate(0,0)"/>
<path d="" fill="#F0FAF7" transform="translate(0,0)"/>
<path d="" fill="#E6F2EF" transform="translate(0,0)"/>
<path d="" fill="#D7E8E1" transform="translate(0,0)"/>
<path d="" fill="#D8EBE3" transform="translate(0,0)"/>
<path d="" fill="#E3F1EC" transform="translate(0,0)"/>
<path d="" fill="#1DB589" transform="translate(0,0)"/>
<path d="" fill="#1CA27C" transform="translate(0,0)"/>
<path d="" fill="#23CC99" transform="translate(0,0)"/>
<path d="" fill="#D8E9E3" transform="translate(0,0)"/>
<path d="" fill="#E9F2EE" transform="translate(0,0)"/>
<path d="" fill="#18A17C" transform="translate(0,0)"/>
<path d="" fill="#189F7A" transform="translate(0,0)"/>
<path d="" fill="#DFEDEA" transform="translate(0,0)"/>
<path d="" fill="#E5EFEB" transform="translate(0,0)"/>
<path d="" fill="#E3EFED" transform="translate(0,0)"/>
<path d="" fill="#29CC9B" transform="translate(0,0)"/>
<path d="" fill="#DCEBE5" transform="translate(0,0)"/>
<path d="" fill="#E5F0EF" transform="translate(0,0)"/>
<path d="" fill="#E1EEE9" transform="translate(0,0)"/>
<path d="" fill="#E7F1EE" transform="translate(0,0)"/>
<path d="" fill="#E9F1EF" transform="translate(0,0)"/>
<path d="" fill="#179F7B" transform="translate(0,0)"/>
<path d="" fill="#F5FAF8" transform="translate(0,0)"/>
<path d="" fill="#E7F3EE" transform="translate(0,0)"/>
<path d="" fill="#19A77D" transform="translate(0,0)"/>
<path d="" fill="#F0F8F6" transform="translate(0,0)"/>
<path d="" fill="#169F7C" transform="translate(0,0)"/>
<path d="" fill="#E2EDE9" transform="translate(0,0)"/>
<path d="" fill="#16A077" transform="translate(0,0)"/>
<path d="" fill="#DEECE7" transform="translate(0,0)"/>
<path d="" fill="#E7F1EE" transform="translate(0,0)"/>
<path d="" fill="#E2EDEB" transform="translate(0,0)"/>
<path d="" fill="#21C895" transform="translate(0,0)"/>
<path d="" fill="#F2F9F6" transform="translate(0,0)"/>
<path d="" fill="#15A780" transform="translate(0,0)"/>
<path d="" fill="#E7F1EE" transform="translate(0,0)"/>
<path d="" fill="#23CB99" transform="translate(0,0)"/>
<path d="" fill="#F1F4F4" transform="translate(0,0)"/>
<path d="" fill="#F3FBF8" transform="translate(0,0)"/>
<path d="" fill="#E6EEEA" transform="translate(0,0)"/>
<path d="" fill="#F5FAF8" transform="translate(0,0)"/>
<path d="" fill="#E1EDE9" transform="translate(0,0)"/>
<path d="" fill="#23CE9A" transform="translate(0,0)"/>
<path d="" fill="#EEF8F7" transform="translate(0,0)"/>
<path d="" fill="#E2EEEA" transform="translate(0,0)"/>
<path d="" fill="#E6F1ED" transform="translate(0,0)"/>
<path d="" fill="#E8F1EE" transform="translate(0,0)"/>
<path d="" fill="#F1F6F6" transform="translate(0,0)"/>
<path d="" fill="#EFF9F6" transform="translate(0,0)"/>
<path d="" fill="#F1F9F5" transform="translate(0,0)"/>
<path d="" fill="#E7F0ED" transform="translate(0,0)"/>
<path d="" fill="#E0EBE7" transform="translate(0,0)"/>
<path d="" fill="#F2F8F6" transform="translate(0,0)"/>
<path d="" fill="#E6F0EC" transform="translate(0,0)"/>
<path d="" fill="#24B38A" transform="translate(0,0)"/>
<path d="" fill="#E5ECE9" transform="translate(0,0)"/>
<path d="" fill="#F4FCFA" transform="translate(0,0)"/>
<path d="" fill="#E6F0EB" transform="translate(0,0)"/>
<path d="" fill="#E4EEEC" transform="translate(0,0)"/>
<path d="" fill="#20A27E" transform="translate(0,0)"/>
<path d="" fill="#E7EFED" transform="translate(0,0)"/>
<path d="" fill="#F5F9F9" transform="translate(0,0)"/>
<path d="" fill="#29C896" transform="translate(0,0)"/>
<path d="" fill="#F3F8F9" transform="translate(0,0)"/>
<path d="" fill="#F4FAF9" transform="translate(0,0)"/>
<path d="" fill="#F8FDFB" transform="translate(0,0)"/>
<path d="" fill="#19A57F" transform="translate(0,0)"/>
<path d="" fill="#171717" transform="translate(0,0)"/>
<path d="" fill="#F6FCFA" transform="translate(0,0)"/>
<path d="" fill="#15A57D" transform="translate(0,0)"/>
<path d="" fill="#19A47E" transform="translate(0,0)"/>
<path d="" fill="#F9FEFD" transform="translate(0,0)"/>
<path d="" fill="#E4EEEB" transform="translate(0,0)"/>
<path d="" fill="#F8FBFA" transform="translate(0,0)"/>
<path d="" fill="#F7FAFB" transform="translate(0,0)"/>
<path d="" fill="#171717" transform="translate(0,0)"/>
<path d="" fill="#E5F0EA" transform="translate(0,0)"/>
<path d="" fill="#E3EFEB" transform="translate(0,0)"/>
<path d="" fill="#F8FCFA" transform="translate(0,0)"/>
<path d="" fill="#E4EFEA" transform="translate(0,0)"/>
<path d="" fill="#F5FBFA" transform="translate(0,0)"/>
<path d="" fill="#E3ECEB" transform="translate(0,0)"/>
<path d="" fill="#26C894" transform="translate(0,0)"/>
<path d="" fill="#EDF5F2" transform="translate(0,0)"/>
<path d="" fill="#18A47D" transform="translate(0,0)"/>
<path d="" fill="#1BA77F" transform="translate(0,0)"/>
<path d="" fill="#E4EDEA" transform="translate(0,0)"/>
<path d="" fill="#16A47E" transform="translate(0,0)"/>
<path d="" fill="#1AA27B" transform="translate(0,0)"/>
<path d="" fill="#25C893" transform="translate(0,0)"/>
<path d="" fill="#F7FEFD" transform="translate(0,0)"/>
<path d="" fill="#FCFEFD" transform="translate(0,0)"/>
<path d="" fill="#1BAB83" transform="translate(0,0)"/>
<path d="" fill="#E1EDE7" transform="translate(0,0)"/>
<path d="" fill="#DDECE8" transform="translate(0,0)"/>
<path d="" fill="#F6FDF9" transform="translate(0,0)"/>
<path d="" fill="#E4EEEA" transform="translate(0,0)"/>
<path d="" fill="#E3F0EC" transform="translate(0,0)"/>
<path d="" fill="#E8F1ED" transform="translate(0,0)"/>
<path d="" fill="#E1EFEA" transform="translate(0,0)"/>
<path d="" fill="#1AA67D" transform="translate(0,0)"/>
<path d="" fill="#E7F1ED" transform="translate(0,0)"/>
<path d="" fill="#E6F0EE" transform="translate(0,0)"/>
<path d="" fill="#F9FFFC" transform="translate(0,0)"/>
<path d="" fill="#FAFEFD" transform="translate(0,0)"/>
<path d="" fill="#F4F9F8" transform="translate(0,0)"/>
<path d="" fill="#FBFEFE" transform="translate(0,0)"/>
<path d="" fill="#E6F0EC" transform="translate(0,0)"/>
<path d="" fill="#21C592" transform="translate(0,0)"/>
<path d="" fill="#E5F0EB" transform="translate(0,0)"/>
<path d="" fill="#22C491" transform="translate(0,0)"/>
<path d="" fill="#E2EDE9" transform="translate(0,0)"/>
<path d="" fill="#1AA37E" transform="translate(0,0)"/>
<path d="" fill="#E0EBE9" transform="translate(0,0)"/>
<path d="" fill="#F6FBF9" transform="translate(0,0)"/>
<path d="" fill="#F9FFFC" transform="translate(0,0)"/>
<path d="" fill="#D4E6E1" transform="translate(0,0)"/>
<path d="" fill="#DAE9E5" transform="translate(0,0)"/>
<path d="" fill="#F6F9FA" transform="translate(0,0)"/>
<path d="" fill="#D6E7E3" transform="translate(0,0)"/>
<path d="" fill="#F7FAF9" transform="translate(0,0)"/>
<path d="" fill="#F8FBFB" transform="translate(0,0)"/>
<path d="" fill="#F5F9F9" transform="translate(0,0)"/>
<path d="" fill="#D6E4E0" transform="translate(0,0)"/>
<path d="" fill="#F8FCFB" transform="translate(0,0)"/>
<path d="" fill="#22BC90" transform="translate(0,0)"/>
<path d="" fill="#13AB81" transform="translate(0,0)"/>
<path d="" fill="#F8FCFB" transform="translate(0,0)"/>
<path d="" fill="#24BD8E" transform="translate(0,0)"/>
<path d="" fill="#16AA80" transform="translate(0,0)"/>
<path d="" fill="#F9FDFD" transform="translate(0,0)"/>
<path d="" fill="#C9E7DD" transform="translate(0,0)"/>
<path d="" fill="#FAFEFA" transform="translate(0,0)"/>
<path d="" fill="#F7FCFA" transform="translate(0,0)"/>
<path d="" fill="#F9FBFD" transform="translate(0,0)"/>
<path d="" fill="#FAFCFA" transform="translate(0,0)"/>
<path d="" fill="#F9FAFA" transform="translate(0,0)"/>
<path d="" fill="#F7FBFA" transform="translate(0,0)"/>
<path d="" fill="#FAFBFB" transform="translate(0,0)"/>
<path d="" fill="#F8FBFC" transform="translate(0,0)"/>
<path d="" fill="#FAFCFC" transform="translate(0,0)"/>
<path d="" fill="#D7ECE5" transform="translate(0,0)"/>
<path d="" fill="#CBE5DD" transform="translate(0,0)"/>
<path d="" fill="#F7FBFA" transform="translate(0,0)"/>
<path d="" fill="#D5EAE2" transform="translate(0,0)"/>
<path d="" fill="#F5F9F7" transform="translate(0,0)"/>
<path d="" fill="#F6FBF9" transform="translate(0,0)"/>
<path d="" fill="#F6FCF9" transform="translate(0,0)"/>
<path d="" fill="#F6FBFB" transform="translate(0,0)"/>
<path d="" fill="#28BB95" transform="translate(0,0)"/>
<path d="" fill="#F7FAF8" transform="translate(0,0)"/>
<path d="" fill="#D2E6E1" transform="translate(0,0)"/>
<path d="" fill="#FAFDFB" transform="translate(0,0)"/>
<path d="" fill="#F5F9F7" transform="translate(0,0)"/>
<path d="" fill="#F6FBF9" transform="translate(0,0)"/>
<path d="" fill="#F7FAFB" transform="translate(0,0)"/>
<path d="" fill="#171717" transform="translate(0,0)"/>
<path d="" fill="#F6F9F7" transform="translate(0,0)"/>
<path d="" fill="#E0EEEB" transform="translate(0,0)"/>
<path d="" fill="#F7FCFC" transform="translate(0,0)"/>
<path d="" fill="#F6FAF9" transform="translate(0,0)"/>
<path d="" fill="#1FBB8D" transform="translate(0,0)"/>
<path d="" fill="#D5EAE6" transform="translate(0,0)"/>
<path d="" fill="#D8EDE6" transform="translate(0,0)"/>
<path d="" fill="#E1EEEB" transform="translate(0,0)"/>
<path d="" fill="#F6F9FA" transform="translate(0,0)"/>
<path d="" fill="#F5F7F5" transform="translate(0,0)"/>
<path d="" fill="#528776" transform="translate(0,0)"/>
<path d="" fill="#F5FAFA" transform="translate(0,0)"/>
<path d="" fill="#F5F9FA" transform="translate(0,0)"/>
<path d="" fill="#F4FAF9" transform="translate(0,0)"/>
<path d="" fill="#E6F2F0" transform="translate(0,0)"/>
<path d="" fill="#E1F0EA" transform="translate(0,0)"/>
<path d="" fill="#F6FBF9" transform="translate(0,0)"/>
<path d="" fill="#E1EDEA" transform="translate(0,0)"/>
<path d="" fill="#F5FAF8" transform="translate(0,0)"/>
<path d="" fill="#E6F2F2" transform="translate(0,0)"/>
<path d="" fill="#21BE90" transform="translate(0,0)"/>
<path d="" fill="#F5F7F6" transform="translate(0,0)"/>
<path d="" fill="#F6FBFA" transform="translate(0,0)"/>
<path d="" fill="#F3F5F6" transform="translate(0,0)"/>
<path d="" fill="#F6F9FA" transform="translate(0,0)"/>
<path d="" fill="#F8FCFB" transform="translate(0,0)"/>
<path d="" fill="#E7F4EF" transform="translate(0,0)"/>
<path d="" fill="#20BA8B" transform="translate(0,0)"/>
<path d="" fill="#E9F4F1" transform="translate(0,0)"/>
<path d="" fill="#F5FBFA" transform="translate(0,0)"/>
<path d="" fill="#FAFEFC" transform="translate(0,0)"/>
<path d="" fill="#EBF6F3" transform="translate(0,0)"/>
<path d="" fill="#18B88B" transform="translate(0,0)"/>
<path d="" fill="#EDF6F5" transform="translate(0,0)"/>
<path d="" fill="#F6FAFA" transform="translate(0,0)"/>
<path d="" fill="#EAF4F3" transform="translate(0,0)"/>
<path d="" fill="#19B184" transform="translate(0,0)"/>
<path d="" fill="#E9F5F0" transform="translate(0,0)"/>
<path d="" fill="#F7FCFA" transform="translate(0,0)"/>
<path d="" fill="#F6FBF8" transform="translate(0,0)"/>
<path d="" fill="#F3F4F5" transform="translate(0,0)"/>
<path d="" fill="#F7FBFB" transform="translate(0,0)"/>
<path d="" fill="#F6FBF9" transform="translate(0,0)"/>
<path d="" fill="#EFF6F2" transform="translate(0,0)"/>
<path d="" fill="#1AB285" transform="translate(0,0)"/>
<path d="" fill="#F5F9F8" transform="translate(0,0)"/>
<path d="" fill="#F9FBFB" transform="translate(0,0)"/>
<path d="" fill="#E8F4F2" transform="translate(0,0)"/>
<path d="" fill="#16AE83" transform="translate(0,0)"/>
<path d="" fill="#F6FAF9" transform="translate(0,0)"/>
<path d="" fill="#F3F9F7" transform="translate(0,0)"/>
<path d="" fill="#727F7A" transform="translate(0,0)"/>
<path d="" fill="#70817A" transform="translate(0,0)"/>
<path d="" fill="#1DBB8A" transform="translate(0,0)"/>
<path d="" fill="#EAF5F0" transform="translate(0,0)"/>
<path d="" fill="#F5F8F7" transform="translate(0,0)"/>
<path d="" fill="#18A77D" transform="translate(0,0)"/>
<path d="" fill="#F6F9F9" transform="translate(0,0)"/>
<path d="" fill="#F6FAFA" transform="translate(0,0)"/>
<path d="" fill="#F9FCFB" transform="translate(0,0)"/>
<path d="" fill="#EFF7F5" transform="translate(0,0)"/>
<path d="" fill="#EFF7F5" transform="translate(0,0)"/>
<path d="" fill="#F5F9F9" transform="translate(0,0)"/>
<path d="" fill="#20BC8C" transform="translate(0,0)"/>
<path d="" fill="#F5FAF9" transform="translate(0,0)"/>
<path d="" fill="#EBF4F3" transform="translate(0,0)"/>
<path d="" fill="#1EB188" transform="translate(0,0)"/>
<path d="" fill="#EBF5F3" transform="translate(0,0)"/>
<path d="" fill="#F5FAFA" transform="translate(0,0)"/>
<path d="" fill="#F5FAF8" transform="translate(0,0)"/>
<path d="" fill="#1CA179" transform="translate(0,0)"/>
<path d="" fill="#19A37B" transform="translate(0,0)"/>
<path d="" fill="#F6FBF9" transform="translate(0,0)"/>
<path d="" fill="#F6FCFA" transform="translate(0,0)"/>
<path d="" fill="#F1F8F6" transform="translate(0,0)"/>
<path d="" fill="#1BB88B" transform="translate(0,0)"/>
<path d="" fill="#1BA47C" transform="translate(0,0)"/>
<path d="" fill="#EDF6F4" transform="translate(0,0)"/>
<path d="" fill="#F5F9F9" transform="translate(0,0)"/>
<path d="" fill="#F4F9F9" transform="translate(0,0)"/>
<path d="" fill="#18A47B" transform="translate(0,0)"/>
<path d="" fill="#F6FAF8" transform="translate(0,0)"/>
<path d="" fill="#EEF3F0" transform="translate(0,0)"/>
<path d="" fill="#F8FBFB" transform="translate(0,0)"/>
<path d="" fill="#EEF6F5" transform="translate(0,0)"/>
<path d="" fill="#2AC598" transform="translate(0,0)"/>
<path d="" fill="#F4FAF8" transform="translate(0,0)"/>
<path d="" fill="#EEF7F4" transform="translate(0,0)"/>
<path d="" fill="#1AA17C" transform="translate(0,0)"/>
<path d="" fill="#E9F4F1" transform="translate(0,0)"/>
<path d="" fill="#F5FAF9" transform="translate(0,0)"/>
<path d="" fill="#F2F8F9" transform="translate(0,0)"/>
<path d="" fill="#F0F7F5" transform="translate(0,0)"/>
<path d="" fill="#1DA77E" transform="translate(0,0)"/>
<path d="" fill="#EEF6F2" transform="translate(0,0)"/>
<path d="" fill="#F5FDFB" transform="translate(0,0)"/>
<path d="" fill="#F4F8F6" transform="translate(0,0)"/>
<path d="" fill="#7C7F7F" transform="translate(0,0)"/>
<path d="" fill="#EDF6F4" transform="translate(0,0)"/>
<path d="" fill="#4E9681" transform="translate(0,0)"/>
<path d="" fill="#23CA99" transform="translate(0,0)"/>
<path d="" fill="#1BB98C" transform="translate(0,0)"/>
<path d="" fill="#1AB88B" transform="translate(0,0)"/>
<path d="" fill="#E9F4EF" transform="translate(0,0)"/>
<path d="" fill="#E9F5F3" transform="translate(0,0)"/>
<path d="" fill="#F3F9F7" transform="translate(0,0)"/>
<path d="" fill="#F0F7F6" transform="translate(0,0)"/>
<path d="" fill="#F2F8F7" transform="translate(0,0)"/>
<path d="" fill="#F2F9F7" transform="translate(0,0)"/>
<path d="" fill="#14A37C" transform="translate(0,0)"/>
<path d="" fill="#F4FBF9" transform="translate(0,0)"/>
<path d="" fill="#F1F8F7" transform="translate(0,0)"/>
<path d="" fill="#E9F5F2" transform="translate(0,0)"/>
<path d="" fill="#E8F3EF" transform="translate(0,0)"/>
<path d="" fill="#F0F8F6" transform="translate(0,0)"/>
<path d="" fill="#ECF6F3" transform="translate(0,0)"/>
<path d="" fill="#F1F9F6" transform="translate(0,0)"/>
<path d="" fill="#E8F1F2" transform="translate(0,0)"/>
<path d="" fill="#F3FAF8" transform="translate(0,0)"/>
<path d="" fill="#E3F1EE" transform="translate(0,0)"/>
<path d="" fill="#E5F2EE" transform="translate(0,0)"/>
<path d="" fill="#EAF5F2" transform="translate(0,0)"/>
<path d="" fill="#E0EEEC" transform="translate(0,0)"/>
<path d="" fill="#E3F0ED" transform="translate(0,0)"/>
<path d="" fill="#E1EEED" transform="translate(0,0)"/>
<path d="" fill="#E1EFEC" transform="translate(0,0)"/>
<path d="" fill="#E1EFEC" transform="translate(0,0)"/>
<path d="" fill="#E2F1EE" transform="translate(0,0)"/>
<path d="" fill="#E1F0EC" transform="translate(0,0)"/>
<path d="" fill="#14A97D" transform="translate(0,0)"/>
<path d="" fill="#E0EEEB" transform="translate(0,0)"/>
<path d="" fill="#DFEEED" transform="translate(0,0)"/>
<path d="" fill="#17BC8A" transform="translate(0,0)"/>
<path d="" fill="#1CB68A" transform="translate(0,0)"/>
<path d="" fill="#26CB9C" transform="translate(0,0)"/>
<path d="" fill="#19B487" transform="translate(0,0)"/>
<path d="" fill="#23CC9D" transform="translate(0,0)"/>
<path d="" fill="#23CB9B" transform="translate(0,0)"/>
<path d="" fill="#18B98D" transform="translate(0,0)"/>
<path d="" fill="#1BB787" transform="translate(0,0)"/>
<path d="" fill="#25BB91" transform="translate(0,0)"/>
<path d="" fill="#ECF5EF" transform="translate(0,0)"/>
<path d="" fill="#E3F0ED" transform="translate(0,0)"/>
<path d="" fill="#1FCF9D" transform="translate(0,0)"/>
<path d="" fill="#EAF5F1" transform="translate(0,0)"/>
<path d="" fill="#14A77E" transform="translate(0,0)"/>
<path d="" fill="#70817C" transform="translate(0,0)"/>
<path d="" fill="#14A87D" transform="translate(0,0)"/>
<path d="" fill="#15A67F" transform="translate(0,0)"/>
<path d="" fill="#E7F4F1" transform="translate(0,0)"/>
<path d="" fill="#13A97E" transform="translate(0,0)"/>
<path d="" fill="#1CB788" transform="translate(0,0)"/>
<path d="" fill="#568477" transform="translate(0,0)"/>
<path d="" fill="#28CFA0" transform="translate(0,0)"/>
<path d="" fill="#1FC191" transform="translate(0,0)"/>
<path d="" fill="#19A77E" transform="translate(0,0)"/>
<path d="" fill="#15AC80" transform="translate(0,0)"/>
<path d="" fill="#15B489" transform="translate(0,0)"/>
<path d="" fill="#1EC392" transform="translate(0,0)"/>
<path d="" fill="#26D09E" transform="translate(0,0)"/>
<path d="" fill="#DAE9E6" transform="translate(0,0)"/>
<path d="" fill="#1BC392" transform="translate(0,0)"/>
<path d="" fill="#D8EBE6" transform="translate(0,0)"/>
<path d="" fill="#14A87E" transform="translate(0,0)"/>
<path d="" fill="#19C894" transform="translate(0,0)"/>
<path d="" fill="#16C797" transform="translate(0,0)"/>
<path d="" fill="#16B68A" transform="translate(0,0)"/>
<path d="" fill="#16B886" transform="translate(0,0)"/>
<path d="" fill="#1ACD99" transform="translate(0,0)"/>
<path d="" fill="#1BD199" transform="translate(0,0)"/>
<path d="" fill="#19CE98" transform="translate(0,0)"/>
<path d="" fill="#15BA8D" transform="translate(0,0)"/>
<path d="" fill="#1ED4A4" transform="translate(0,0)"/>
<path d="" fill="#2BDAAB" transform="translate(0,0)"/>
<path d="" fill="#797D7C" transform="translate(0,0)"/>
<path d="" fill="#5E8177" transform="translate(0,0)"/>
<path d="" fill="#6A867A" transform="translate(0,0)"/>
<path d="" fill="#27D7A7" transform="translate(0,0)"/>
<path d="" fill="#17A87F" transform="translate(0,0)"/>
<path d="" fill="#17A980" transform="translate(0,0)"/>
<path d="" fill="#14B78B" transform="translate(0,0)"/>
<path d="" fill="#14D49A" transform="translate(0,0)"/>
<path d="" fill="#14BA8B" transform="translate(0,0)"/>
<path d="" fill="#1ABC8D" transform="translate(0,0)"/>
<path d="" fill="#17D39C" transform="translate(0,0)"/>
<path d="" fill="#15B98C" transform="translate(0,0)"/>
<path d="" fill="#737C78" transform="translate(0,0)"/>
<path d="" fill="#26D39F" transform="translate(0,0)"/>
<path d="" fill="#16BA89" transform="translate(0,0)"/>
<path d="" fill="#15B98A" transform="translate(0,0)"/>
<path d="" fill="#1DD89E" transform="translate(0,0)"/>
<path d="" fill="#26E4AB" transform="translate(0,0)"/>
<path d="" fill="#17AE85" transform="translate(0,0)"/>
<path d="" fill="#17AF84" transform="translate(0,0)"/>
<path d="" fill="#1CB88C" transform="translate(0,0)"/>
<path d="" fill="#787C79" transform="translate(0,0)"/>
<path d="" fill="#18B588" transform="translate(0,0)"/>
<path d="" fill="#16A981" transform="translate(0,0)"/>
<path d="" fill="#6D7976" transform="translate(0,0)"/>
<path d="" fill="#14AE83" transform="translate(0,0)"/>
<path d="" fill="#0EAD81" transform="translate(0,0)"/>
<path d="" fill="#27DAB1" transform="translate(0,0)"/>
<path d="" fill="#15B184" transform="translate(0,0)"/>
<path d="" fill="#12B283" transform="translate(0,0)"/>
<path d="" fill="#2BE2AC" transform="translate(0,0)"/>
<path d="" fill="#1CB787" transform="translate(0,0)"/>
<path d="" fill="#19B88D" transform="translate(0,0)"/>
<path d="" fill="#13B383" transform="translate(0,0)"/>
<path d="" fill="#1DDCA3" transform="translate(0,0)"/>
<path d="" fill="#2BDBAA" transform="translate(0,0)"/>
<path d="" fill="#767B77" transform="translate(0,0)"/>
<path d="" fill="#6F807A" transform="translate(0,0)"/>
<path d="" fill="#19BA8C" transform="translate(0,0)"/>
<path d="" fill="#19B98F" transform="translate(0,0)"/>
<path d="" fill="#19B88A" transform="translate(0,0)"/>
<path d="" fill="#1BE7A7" transform="translate(0,0)"/>
<path d="" fill="#1DE1A7" transform="translate(0,0)"/>
<path d="" fill="#2AE5AF" transform="translate(0,0)"/>
<path d="" fill="#1FE9AC" transform="translate(0,0)"/>
<path d="" fill="#20EAAC" transform="translate(0,0)"/>
<path d="" fill="#10B484" transform="translate(0,0)"/>
<path d="" fill="#21E4AA" transform="translate(0,0)"/>
<path d="" fill="#17BD8F" transform="translate(0,0)"/>
<path d="" fill="#17C18E" transform="translate(0,0)"/>
<path d="" fill="#0CBD89" transform="translate(0,0)"/>
<path d="" fill="#21E8AE" transform="translate(0,0)"/>
<path d="" fill="#21E5AB" transform="translate(0,0)"/>
<path d="" fill="#6F7B78" transform="translate(0,0)"/>
<path d="" fill="#20E3AC" transform="translate(0,0)"/>
<path d="" fill="#17B489" transform="translate(0,0)"/>
<path d="" fill="#23E8AF" transform="translate(0,0)"/>
<path d="" fill="#22E4AD" transform="translate(0,0)"/>
<path d="" fill="#14BD91" transform="translate(0,0)"/>
<path d="" fill="#1CC291" transform="translate(0,0)"/>
<path d="" fill="#17C493" transform="translate(0,0)"/>
<path d="" fill="#15BC8B" transform="translate(0,0)"/>
<path d="" fill="#737574" transform="translate(0,0)"/>
<path d="" fill="#1EDFA9" transform="translate(0,0)"/>
<path d="" fill="#26E5AB" transform="translate(0,0)"/>
<path d="" fill="#6C7571" transform="translate(0,0)"/>
<path d="" fill="#17C392" transform="translate(0,0)"/>
<path d="" fill="#18C291" transform="translate(0,0)"/>
<path d="" fill="#18B68A" transform="translate(0,0)"/>
<path d="" fill="#1AC393" transform="translate(0,0)"/>
<path d="" fill="#12BC8D" transform="translate(0,0)"/>
<path d="" fill="#13BC89" transform="translate(0,0)"/>
<path d="" fill="#18E8AE" transform="translate(0,0)"/>
<path d="" fill="#1FE6AB" transform="translate(0,0)"/>
<path d="" fill="#20E5AC" transform="translate(0,0)"/>
<path d="" fill="#1AC395" transform="translate(0,0)"/>
<path d="" fill="#23DCA6" transform="translate(0,0)"/>
<path d="" fill="#1BC392" transform="translate(0,0)"/>
<path d="" fill="#21DFA6" transform="translate(0,0)"/>
<path d="" fill="#26E4AA" transform="translate(0,0)"/>
<path d="" fill="#1AC794" transform="translate(0,0)"/>
<path d="" fill="#15BA8C" transform="translate(0,0)"/>
<path d="" fill="#14C08E" transform="translate(0,0)"/>
<path d="" fill="#27E0A6" transform="translate(0,0)"/>
<path d="" fill="#4E8273" transform="translate(0,0)"/>
<path d="" fill="#27E4AD" transform="translate(0,0)"/>
<path d="" fill="#1DC695" transform="translate(0,0)"/>
<path d="" fill="#21DCA6" transform="translate(0,0)"/>
<path d="" fill="#1CCE9A" transform="translate(0,0)"/>
<path d="" fill="#677D75" transform="translate(0,0)"/>
<path d="" fill="#1ED99E" transform="translate(0,0)"/>
<path d="" fill="#1ECE97" transform="translate(0,0)"/>
<path d="" fill="#23D89F" transform="translate(0,0)"/>
<path d="" fill="#22E8AF" transform="translate(0,0)"/>
<path d="" fill="#1EE3A5" transform="translate(0,0)"/>
<path d="" fill="#16BF90" transform="translate(0,0)"/>
<path d="" fill="#28E5AC" transform="translate(0,0)"/>
<path d="" fill="#16C08F" transform="translate(0,0)"/>
<path d="" fill="#1AC191" transform="translate(0,0)"/>
<path d="" fill="#21EBB3" transform="translate(0,0)"/>
<path d="" fill="#29E6AF" transform="translate(0,0)"/>
<path d="" fill="#27E5AA" transform="translate(0,0)"/>
<path d="" fill="#1CC394" transform="translate(0,0)"/>
<path d="" fill="#22E6A8" transform="translate(0,0)"/>
<path d="" fill="#61706C" transform="translate(0,0)"/>
<path d="" fill="#21E4A9" transform="translate(0,0)"/>
<path d="" fill="#1CDCA8" transform="translate(0,0)"/>
<path d="" fill="#21E1A9" transform="translate(0,0)"/>
<path d="" fill="#23D39D" transform="translate(0,0)"/>
<path d="" fill="#1ED09C" transform="translate(0,0)"/>
<path d="" fill="#1FD8A0" transform="translate(0,0)"/>
<path d="" fill="#1FDFA6" transform="translate(0,0)"/>
<path d="" fill="#20DAA1" transform="translate(0,0)"/>
<path d="" fill="#656968" transform="translate(0,0)"/>
<path d="" fill="#67716E" transform="translate(0,0)"/>
<path d="" fill="#676D6C" transform="translate(0,0)"/>
<path d="" fill="#616865" transform="translate(0,0)"/>
<path d="" fill="#587A70" transform="translate(0,0)"/>
<path d="" fill="#63716C" transform="translate(0,0)"/>
<path d="" fill="#4F927E" transform="translate(0,0)"/>
<path d="" fill="#538976" transform="translate(0,0)"/>
<path d="" fill="#606364" transform="translate(0,0)"/>
<path d="" fill="#628379" transform="translate(0,0)"/>
<path d="" fill="#606361" transform="translate(0,0)"/>
<path d="" fill="#616D68" transform="translate(0,0)"/>
<path d="" fill="#606664" transform="translate(0,0)"/>
<path d="" fill="#606164" transform="translate(0,0)"/>
<path d="" fill="#5F6160" transform="translate(0,0)"/>
<path d="" fill="#616665" transform="translate(0,0)"/>
<path d="" fill="#606261" transform="translate(0,0)"/>
<path d="" fill="#656A68" transform="translate(0,0)"/>
<path d="" fill="#617C73" transform="translate(0,0)"/>
<path d="" fill="#61887D" transform="translate(0,0)"/>
<path d="" fill="#5F5F5E" transform="translate(0,0)"/>
<path d="" fill="#656E69" transform="translate(0,0)"/>
<path d="" fill="#618176" transform="translate(0,0)"/>
<path d="" fill="#608579" transform="translate(0,0)"/>
<path d="" fill="#656666" transform="translate(0,0)"/>
<path d="" fill="#6B8079" transform="translate(0,0)"/>
<path d="" fill="#5E6060" transform="translate(0,0)"/>
<path d="" fill="#677772" transform="translate(0,0)"/>
<path d="" fill="#646564" transform="translate(0,0)"/>
<path d="" fill="#69887E" transform="translate(0,0)"/>
<path d="" fill="#5F6060" transform="translate(0,0)"/>
<path d="" fill="#677871" transform="translate(0,0)"/>
<path d="" fill="#667F76" transform="translate(0,0)"/>
<path d="" fill="#658277" transform="translate(0,0)"/>
<path d="" fill="#667E76" transform="translate(0,0)"/>
<path d="" fill="#6A897E" transform="translate(0,0)"/>
</svg>
